<?xml version="1.0" standalone="no"?>
<!DOCTYPE svg PUBLIC "-//W3C//DTD SVG 1.1//EN" "http://www.w3.org/Graphics/SVG/1.1/DTD/svg11.dtd" >
<svg xmlns="http://www.w3.org/2000/svg">
<metadata>
This is a custom SVG webfont generated by Font Squirrel.
Copyright   : Copyright c 2010 by typedepot All rights reserved
Foundry     : typedepot
</metadata>
<defs>
<font id="webfonte6WetEE9" horiz-adv-x="1497" >
<font-face units-per-em="2048" ascent="1638" descent="-410" />
<missing-glyph horiz-adv-x="616" />
<glyph unicode=" "  horiz-adv-x="616" />
<glyph unicode="&#x09;" horiz-adv-x="616" />
<glyph unicode="&#xa0;" horiz-adv-x="616" />
<glyph unicode="!" horiz-adv-x="335" d="M229 61q0 -29 -19.5 -45t-45.5 -16q-25 0 -44.5 16.5t-19.5 44.5v158q0 29 19.5 46.5t44.5 17.5q27 0 46 -17.5t19 -46.5v-158zM229 1438v-977q0 -39 -32.5 -54.5t-64.5 1t-32 55.5v975q0 29 19.5 46t44.5 17q27 0 46 -17t19 -46z" />
<glyph unicode="&#x22;" horiz-adv-x="624" d="M336 1239v201q0 31 19.5 47t43.5 16q27 0 46.5 -16.5t19.5 -46.5v-201q0 -29 -19.5 -45t-46.5 -16q-25 0 -44 16t-19 45zM154 1239v201q0 31 19.5 47t45.5 16q25 0 44.5 -16.5t19.5 -46.5v-201q0 -29 -19.5 -45t-44.5 -16q-27 0 -46 16t-19 45z" />
<glyph unicode="#" horiz-adv-x="1447" d="M752 1370l-95 -356h224q39 0 55 -33t0 -65.5t-55 -32.5h-258l-72 -267h223q37 0 53.5 -31.5t0 -64.5t-53.5 -33h-258l-96 -358h6q39 0 54.5 -33t0 -64.5t-54.5 -31.5h-164q-39 0 -54 31.5t0 64.5t54 33h25l94 358h-215q-31 0 -47.5 19.5t-16.5 46.5t16.5 45t47.5 18h250 l71 267h-215q-31 0 -47 19.5t-16 45.5q0 25 16.5 44.5t46.5 19.5h250l96 358h-8q-39 0 -55 32t0 64.5t55 32.5h162q39 0 54.5 -32.5t0 -64.5t-54.5 -32h-20zM1190 1370h-29l-96 -358h217q31 0 47.5 -19.5t16.5 -44.5q0 -27 -16.5 -46t-47.5 -19h-250l-71 -267h215 q31 0 47 -19t16 -44q0 -27 -16.5 -46.5t-46.5 -19.5h-250l-95 -358h13q39 0 54 -33t0 -64.5t-54 -31.5h-162q-39 0 -55.5 31.5t0 64.5t55.5 33h14l80 299q59 2 92 47t25 99.5t-55 84.5l43 164q70 0 104 60q27 43 15.5 95t-56.5 79l84 313q-39 0 -55.5 32t0 64.5t55.5 32.5 h162q39 0 55.5 -32.5t0 -64.5t-55.5 -32z" />
<glyph unicode="$" horiz-adv-x="1218" d="M131 475q0 27 18.5 45.5t45.5 18.5h92q39 0 54 -32t0 -64.5t-54 -32.5h-23q23 -102 101 -179q121 -113 286 -100q125 6 219 88q94 80 95 197q0 92 -56.5 164.5t-146.5 109.5q-16 6 -117 33q-37 10 -45 44t15.5 58.5t60.5 14.5q14 -4 59 -15.5t70 -19.5 q129 -45 209 -150.5t80 -238.5q0 -170 -140 -293q-119 -102 -278 -119v-74q0 -29 -19.5 -46t-44.5 -17q-27 0 -46 17.5t-19 45.5v78q-156 23 -271 131q-145 139 -145 336zM676 1567v-76q4 0 10 -2t8 -2q129 -29 219 -115q131 -125 131 -301q0 -23 -17 -40t-40 -17h-92 q-39 0 -55.5 32.5t0 65.5t55.5 33h25q-23 88 -86 145q-72 68 -168 86q-164 31 -287 -76q-84 -70 -84 -176q0 -98 72 -174q55 -57 202 -88q-45 -53 -24 -117q-193 41 -277 144q-88 104 -88 235q0 156 123 262q106 90 244 107v74q0 31 19.5 47t45.5 16q25 0 44.5 -16t19.5 -47 z" />
<glyph unicode="&#x26;" horiz-adv-x="1181" d="M788 418v270h-237q-156 0 -238 -82t-82 -196.5t82 -198.5q80 -80 201 -80q39 0 55.5 -32.5t0 -64.5t-55.5 -32q-172 0 -291 119q-121 121 -121 289t121 286q27 27 70 56q-45 29 -70 57q-121 119 -121 287t121 286q86 88 210 113t235 -25q90 -39 153.5 -113.5t83.5 -168.5 q6 -27 -8 -49.5t-39 -28.5q-27 -4 -49.5 9.5t-28.5 39.5q-29 135 -162 193q-76 35 -160.5 18.5t-144.5 -78.5q-82 -82 -82 -196.5t82 -196.5t238 -82h237v86q0 29 18.5 46.5t45.5 17.5t46.5 -17.5t19.5 -46.5v-86h98q29 0 46 -19.5t17 -45.5q0 -25 -17.5 -44.5t-45.5 -19.5 h-98v-260q0 -184 -121 -307q-76 -74 -168 -101q20 63 -15 117q-4 8 -8 10q59 23 101 64q81 82 81 207z" />
<glyph unicode="'" horiz-adv-x="358" d="M33 1356v200q0 31 19.5 47.5t45.5 16.5q25 0 44.5 -16.5t19.5 -47.5v-200q0 -29 -19.5 -45.5t-44.5 -16.5q-27 0 -46 16.5t-19 45.5z" />
<glyph unicode="(" horiz-adv-x="669" d="M211 1262q117 236 293 235q27 0 45 -18.5t18 -45t-18.5 -45t-44.5 -18.5q-100 0 -178 -164q-96 -197 -96.5 -457t96.5 -456q78 -164 178 -164q27 0 45 -18.5t18 -45t-18.5 -46t-44.5 -19.5q-176 0 -293 238q-109 223 -109 512t109 512z" />
<glyph unicode=")" horiz-adv-x="667" d="M457 1262q109 -223 108.5 -512t-108.5 -512q-115 -238 -291 -238q-27 0 -45.5 19.5t-18.5 46t18.5 45t45.5 18.5q98 0 176 164q96 197 96 457t-96 456q-78 164 -176 164q-27 0 -45.5 18.5t-18.5 45t18.5 45t45.5 18.5q86 0 162 -62t129 -173z" />
<glyph unicode="*" horiz-adv-x="851" d="M360 1382v174q0 29 19.5 45.5t46.5 16.5t45 -16.5t18 -45.5v-174l166 82q57 27 86 -28q29 -57 -26 -86l-199 -99l158 -174q39 -45 -8 -90q-18 -16 -42 -17t-46 21l-152 168l-152 -168q-39 -45 -90 -4q-47 43 -6 90l156 174l-197 99q-55 29 -26 86q12 23 33.5 32t50.5 -4z " />
<glyph unicode="+" horiz-adv-x="937" d="M532 1034v-239h240q31 0 47.5 -19.5t16.5 -46.5t-16.5 -45t-47.5 -18h-240v-240q0 -31 -18 -47.5t-45 -16.5t-46.5 16.5t-19.5 47.5v240h-239q-29 0 -45.5 18t-16.5 45t16.5 46.5t45.5 19.5h239v239q0 29 19.5 45.5t46.5 16.5t45 -16.5t18 -45.5z" />
<glyph unicode="," horiz-adv-x="391" d="M106 -96l54 194q8 27 30.5 38t47 5t40 -27.5t7.5 -47.5l-54 -195q-14 -59 -77 -43q-25 6 -40.5 27.5t-7.5 48.5z" />
<glyph unicode="-" horiz-adv-x="937" d="M772 666h-608q-29 0 -45.5 18t-16.5 45t16.5 46.5t45.5 19.5h608q31 0 47.5 -19.5t16.5 -46.5t-16.5 -45t-47.5 -18z" />
<glyph unicode="." horiz-adv-x="344" d="M172 143q29 0 49.5 -21.5t20.5 -50t-20.5 -49t-49.5 -20.5t-49.5 20.5t-20.5 49t20.5 50t49.5 21.5z" />
<glyph unicode="0" horiz-adv-x="1181" d="M102 1012q0 203 143.5 346t345.5 143t345 -143.5t143 -345.5v-520q0 -203 -143 -347q-98 -98 -238 -131q29 68 -10 123q0 2 -4 6q96 23 162 93q106 106 106 256v520q0 150 -106.5 256t-255 106t-255 -106.5t-106.5 -255.5v-520q0 -150 107 -256q104 -104 252 -105 q39 0 55 -32.5t0 -64.5t-55 -32q-195 0 -342 143q-143 143 -144 347v520z" />
<glyph unicode="1" horiz-adv-x="661" d="M479 1436v-1307h17q39 0 55 -33t0 -64.5t-55 -31.5h-76h-6h-6h-74q-39 0 -55.5 31.5t0 64.5t55.5 33h16v1131l-131 -156q-18 -23 -43.5 -23t-46.5 19q-20 16 -24.5 39.5t14.5 48.5l237 280q27 31 58 31q27 0 46 -17t19 -46z" />
<glyph unicode="2" horiz-adv-x="1146" d="M981 0h-817q-29 0 -45.5 19.5t-16.5 46.5q0 25 27 59l130 160l169 204q70 82 135 148q29 29 64 16.5t44 -44t-16 -62.5q-96 -96 -356 -418h614v25q0 39 33 54t65.5 0t32.5 -54v-88q0 -29 -18 -47.5t-45 -18.5zM635 713q10 10 30.5 33.5t22.5 25.5q201 217 201 354 q0 106 -84 177q-123 106 -287 75q-96 -18 -168 -86q-94 -90 -94 -219q0 -23 -17.5 -40t-39.5 -17q-25 0 -41.5 17.5t-16.5 39.5q0 176 131 301q86 86 217 115q102 23 207 -4t185 -96q123 -106 123 -263q0 -113 -66 -222t-180 -236q-12 -12 -33 -37q-22 64 -90 82z" />
<glyph unicode="3" horiz-adv-x="1114" d="M852 799l13 -12.5t14 -12.5q133 -131 133 -320.5t-133 -322.5q-131 -131 -334 -131q-39 0 -55.5 31.5t0 64.5t55.5 33q150 0 243 94q90 90 94.5 218t-75.5 227q-49 61 -148 61q-29 0 -46 19.5t-17 46t17.5 46t45.5 19.5q111 0 152 96q39 82 25.5 173.5t-78.5 156.5 q-82 82 -201 82t-203 -82q-82 -82 -82 -201q0 -27 -18 -45t-45 -18t-45.5 17.5t-18.5 43.5q-4 170 119 293q121 121 293 121t291 -121q121 -119 122 -287.5t-118 -289.5zM252 518q39 0 54.5 -32.5t0 -65.5t-54.5 -33h-16q23 -98 90 -164q51 -53 125 -80q-47 -57 -19 -127 q-113 31 -196 115q-133 137 -134 322q0 27 18.5 46t45.5 19h86z" />
<glyph unicode="4" horiz-adv-x="1202" d="M907 1436v-1014h129q29 0 46.5 -19.5t17.5 -44.5q0 -27 -17.5 -46t-46.5 -19h-129v-164h17q39 0 54 -33t0 -64.5t-54 -31.5h-164q-39 0 -54.5 31.5t0 64.5t54.5 33h16v115q53 23 69.5 79t-16.5 107q-23 29 -53 41v877l-500 -926h453q39 0 54.5 -33t0 -64.5t-54.5 -31.5 h-563q-47 0 -60 43q-8 29 19 76l571 1056q16 35 56 31h90q29 0 47 -18t18 -45z" />
<glyph unicode="5" horiz-adv-x="1226" d="M281 711q-37 -33 -78 -6q-47 31 -23 81l137 627q6 29 10.5 42t18.5 28.5t39 15.5h569q33 0 52 -26q10 -14 10 -58v-65q0 -39 -33 -55.5t-64.5 0t-31.5 55.5v20h-447l-92 -420q150 90 325 69.5t300 -145.5q106 -106 137 -251q-68 31 -127 -13q-25 98 -100 174 q-106 106 -258 111.5t-267 -94.5q-16 -14 -39.5 -46t-37.5 -44zM993 512q0 39 33 55.5t65.5 0t32.5 -55.5q0 -213 -151 -360q-113 -113 -268.5 -141.5t-298.5 34.5q-123 53 -204 161.5t-98 244.5q-4 27 12.5 48t43.5 23q27 4 48 -12t23 -43q12 -102 73 -183t153 -122 q106 -47 224 -25.5t202 105.5q110 110 110 270z" />
<glyph unicode="6" horiz-adv-x="1181" d="M936 831q143 -143 143 -352q0 -39 -31.5 -55t-64.5 0t-33 55q0 158 -104 262q-106 106 -255 106.5t-255.5 -106t-106.5 -255t106.5 -255t255 -106.5t255.5 106q63 61 90 152q59 -47 129 -16q-35 -131 -129 -226q-143 -143 -345 -143t-345 143q-104 104 -133 250t26 281 q25 59 83.5 165.5t70.5 131.5l260 497q31 55 86 27q57 -33 29 -86l-240 -461q129 47 269.5 16t238.5 -131z" />
<glyph unicode="7" horiz-adv-x="1105" d="M274 92l256 578q45 -59 117 -54l-256 -581q-20 -33 -52 -35t-56.5 27.5t-8.5 64.5zM102 1350v84q0 27 17.5 46t44.5 19h760q37 4 63.5 -24.5t9.5 -67.5l-305 -692q-14 -37 -51 -40t-61.5 24.5t-8.5 62.5l267 608h-607v-20q0 -39 -31.5 -55.5t-64.5 0t-33 55.5z" />
<glyph unicode="8" horiz-adv-x="1089" d="M813 1391q111 -111 111 -267.5t-111 -269.5q-39 -33 -41 -35q47 -29 86 -67q129 -129 129 -312.5t-129 -314.5q-131 -129 -314.5 -129t-312.5 129q-129 131 -129 314.5t129 312.5q37 39 86 67q-23 16 -41 35q-113 113 -112.5 269.5t112.5 267.5q111 113 268.5 113 t268.5 -113zM541 872q39 0 54 -29.5t0 -59t-54 -29.5q-127 0 -219.5 -92.5t-92.5 -223.5t92.5 -223t222.5 -92t222 92q94 92 94 223t-94 224q-51 55 -131 79q27 31 25.5 73t-27.5 73q45 16 90 57q74 74 74 178.5t-74 178t-178.5 73.5t-178 -73.5t-73.5 -178t74 -178.5 q72 -72 174 -72z" />
<glyph unicode="9" horiz-adv-x="1181" d="M246 668q-143 143 -143.5 344.5t143 345t345.5 143.5t345 -143q121 -121 140.5 -291t-70.5 -313l-377 -723q-29 -53 -86 -25q-23 12 -32 34.5t3 51.5l201 383l57 23q70 27 78 101.5t-53 117.5q33 20 49 41q106 104 106 253.5t-106.5 256t-255 106.5t-255 -106.5 t-106.5 -256t107 -253.5q74 -74 175 -96.5t194 12.5q37 14 63.5 -10.5t23 -60.5t-39.5 -50q-129 -49 -268.5 -16t-237.5 131z" />
<glyph unicode=":" horiz-adv-x="344" d="M172 143q29 0 49.5 -21.5t20.5 -50t-20.5 -49t-49.5 -20.5t-49.5 20.5t-20.5 49t20.5 50t49.5 21.5zM172 686q29 0 49.5 -21.5t20.5 -50t-20.5 -49t-49.5 -20.5t-49.5 20.5t-20.5 49t20.5 50t49.5 21.5z" />
<glyph unicode=";" horiz-adv-x="393" d="M106 -94l54 194q8 27 30.5 38.5t47 5t40 -28t7.5 -47.5l-54 -195q-14 -59 -77 -43q-25 6 -40.5 27.5t-7.5 48.5zM221.5 686q28.5 0 49 -21.5t20.5 -50t-20.5 -49t-49 -20.5t-49 20.5t-20.5 49t20.5 50t49 21.5z" />
<glyph unicode="&#x3c;" horiz-adv-x="831" d="M696 961l-399 -230l399 -229q51 -31 23 -88q-33 -55 -88 -25l-496 287q-33 18 -33 55t37 57l492 285q55 31 88 -24q28 -55 -23 -88z" />
<glyph unicode="=" horiz-adv-x="937" d="M772 526h-608q-29 0 -45.5 19.5t-16.5 44.5q0 27 16.5 46t45.5 19h608q31 0 47.5 -19.5t16.5 -45.5q0 -25 -16.5 -44.5t-47.5 -19.5zM772 803h-608q-29 0 -45.5 19.5t-16.5 46t16.5 46t45.5 19.5h608q31 0 47.5 -19.5t16.5 -46t-16.5 -46t-47.5 -19.5z" />
<glyph unicode="&#x3e;" horiz-adv-x="831" d="M135 961q-53 33 -22 88q33 55 86 24l493 -285q37 -23 35 -57q4 -33 -31 -55l-497 -287q-53 -31 -86 25q-33 57 22 88l397 229z" />
<glyph unicode="?" horiz-adv-x="1073" d="M161.5 1001q-26.5 0 -45 18.5t-18.5 47.5q0 178 127 305t307.5 127t307.5 -127q90 -90 117.5 -218t-15.5 -247q-37 -111 -184 -270q-96 -102 -137 -201q-25 -57 -84.5 -31.5t-36.5 82.5q47 106 164 236q115 123 149 207q39 88 22.5 185t-85.5 167q-90 90 -217 90 t-217.5 -90t-90.5 -217q0 -27 -18.5 -45.5t-45 -18.5zM604 59q0 -29 -19.5 -45t-46 -16t-46 16.5t-19.5 44.5v158q0 29 19.5 46.5t46 17.5t46 -17.5t19.5 -46.5v-158z" />
<glyph unicode="@" horiz-adv-x="2318" d="M1608 0q-23 0 -37.5 14.5t-14.5 36.5v37l72 84q47 61 15.5 129t-107.5 74h-10q47 113 22.5 239.5t-114.5 216.5q-123 123 -297 123t-297 -122.5t-123 -297t123 -296.5q109 -109 261 -122.5t275 72.5q51 35 103 101q25 31 61.5 22.5t49 -38t-8.5 -64.5q-74 -86 -141 -133 q-160 -106 -355.5 -88t-334.5 157q-162 162 -162 389.5t162 387.5q160 162 387 161.5t389 -161.5q10 -10 30 -35v98h146q39 0 55.5 -32.5t0 -65.5t-55.5 -33h-14v-725h198q33 61 64 141q0 4 2 8.5t3 7.5t2 9t3 10q63 215 7 437.5t-218 383.5q-244 244 -589 244t-587 -244 q-244 -242 -243.5 -587.5t243.5 -587.5q115 -117 269.5 -180.5t318.5 -63.5q27 0 45.5 -19.5t18.5 -46t-18.5 -45t-45.5 -18.5q-395 0 -680 281q-281 281 -280.5 680t281 679.5t680 280.5t677.5 -280q186 -186 252 -443.5t-8 -505.5q-2 -14 -12 -41q-39 -113 -95 -198 q-16 -31 -53 -31h-315z" />
<glyph unicode="A" horiz-adv-x="1517" d="M760 1262l-258 -662h-15q-76 0 -108 -68q-15 -30 -15 -58q0 -36 23 -68q14 -20 27 -29l-97 -248h11q39 0 54 -33q8 -16 8 -32t-8 -32q-15 -32 -54 -32h-164q-39 0 -54 32q-8 16 -8 32t8 32q15 33 54 33h16l484 1243q-33 6 -44.5 38t5 61.5t53.5 29.5h162q37 0 53 -29.5 t5 -61.5t-44 -38l485 -1243h15q39 0 54 -33q8 -16 8 -32t-8 -32q-15 -32 -54 -32h-162q-39 0 -55 32q-8 16 -8.5 32t8.5 32q16 33 55 33h8l-110 283h-603q-39 0 -55 31q-8 16 -8 32.5t8 32.5q16 33 55 33h553z" />
<glyph unicode="B" horiz-adv-x="1290" d="M319 1370v-504q-55 -20 -72 -79q-6 -19 -6 -38q0 -37 23 -71q23 -33 55 -45v-504h455q119 6 201 82q84 82 84 196.5t-84 196.5q-41 37 -99.5 55.5t-100.5 21.5t-116 3h-294q-39 0 -56 33q-8 16 -8 32.5t8 32.5q16 33 56 33h297q102 0 185 70.5t95 173.5q2 19 2 37 q0 111 -86 192q-84 82 -211 82h-328zM774 0h-610q-39 0 -54 32q-8 16 -8 32t8 32q15 33 54 33h26v1241h-26q-39 0 -54 32q-8 16 -8 32t8 32q15 33 54 33h487q170 0 295 -119q74 -70 106 -162q21 -61 21 -125q0 -32 -6 -65q-25 -147 -143 -246q74 -25 137 -86 q127 -119 127 -288.5t-127 -288.5q-125 -119 -287 -119z" />
<glyph unicode="C" horiz-adv-x="1509" d="M412 309q137 -135 324 -171q60 -12 119 -11q124 0 243 51q113 49 200 137q18 18 45 19.5t45.5 -17t18.5 -45t-18 -45.5q-98 -104 -240 -166q-141 -61 -291 -61q-72 0 -145 14q-227 43 -391 205q-219 223 -220 531q0 39 32 54q16 8 32 8l32 -8q32 -15 31 -54 q1 -255 183 -441zM111 858q33 242 211 424q164 162 391 205q73 14 145 14q150 0 291 -61t240 -166q18 -18 18 -45v-90q0 -39 -32 -56q-16 -8 -32 -8t-32 8q-33 16 -33 56v67q-80 74 -180 117q-118 51 -243 51q-59 0 -119 -11q-187 -36 -324 -171q-141 -145 -174 -344 q-36 24 -72 24z" />
<glyph unicode="D" horiz-adv-x="1472" d="M322 1370v-1241h294q260 0 445 180q182 186 182 441q0 39 32 54q16 8 32 8l31 -8q32 -15 32 -54q0 -307 -219 -531q-219 -219 -541 -219h-444q-39 0 -55 32q-8 16 -8.5 32t8.5 32q16 33 55 33h27v1241h-27q-39 0 -55 32q-8 16 -8.5 32t8.5 32q16 33 55 33h448 q315 0 537 -217q174 -178 211 -424q-28 13 -56 13q-36 0 -71 -23q-33 199 -174 344q-182 178 -436 178h-303z" />
<glyph unicode="E" horiz-adv-x="1413" d="M428 1370v-504q-51 -18 -70 -67q-9 -24 -9 -48q0 -25 10 -51q19 -49 69 -67v-504h649v29q0 39 33 54q16 8 32.5 8t32.5 -8q32 -15 31 -54v-92q0 -27 -16 -46.5t-45 -19.5h-873q-39 0 -55 32q-8 16 -8 32t8 32q16 33 55 33h27v1241h-27q-39 0 -55 32q-8 16 -8 32t8 32 q16 33 55 33h873q31 0 47 -20.5t14 -46.5v-91q0 -39 -31 -54q-16 -8 -32.5 -8t-32.5 8q-33 15 -33 54v29h-649zM971 684h-500q-39 0 -54 33q-8 16 -8 32.5t8 32.5q15 33 54 33h500q39 0 54 -33q8 -16 8 -32.5t-8 -32.5q-15 -33 -54 -33z" />
<glyph unicode="F" horiz-adv-x="1204" d="M322 1370v-504q-53 -20 -72 -79q-7 -21 -7 -41q0 -36 21 -68q23 -33 58 -45v-506h16q39 0 55 -33q8 -16 8 -32t-8 -32q-16 -32 -55 -32h-162q-39 0 -55 32q-8 16 -8 32t8 32q16 33 55 33h17v1243h-27q-39 0 -55 32q-8 16 -8.5 32t8.5 32q16 33 55 33h872q31 0 47.5 -20.5 t14.5 -46.5v-91q0 -39 -33 -54q-16 -8 -32.5 -8t-32.5 8q-32 15 -31 54v29h-649zM864 684h-499q-39 0 -55 33q-8 16 -7.5 32.5t7.5 32.5q15 33 55 33h499q39 0 55 -33q8 -16 7.5 -32.5t-7.5 -32.5q-16 -33 -55 -33z" />
<glyph unicode="G" horiz-adv-x="1437" d="M1335 707v-54q-28 18 -64 18h-10q-42 -3 -73 -30h-291v-29q0 -39 -33 -54q-16 -8 -32 -8t-32 8q-32 15 -32 54v90q-2 27 14.5 47.5t46.5 20.5h443q27 0 45 -17t18 -46zM1192 1214v60q-33 23 -92 49q-117 51 -241 51q-59 0 -120 -11q-188 -36 -325 -171 q-180 -182 -180.5 -441t180.5 -442q137 -135 325 -171q60 -12 120 -11q124 0 241 51q61 27 106 60v311q0 39 32 54q16 8 32 8t33 -8q33 -15 32 -54v-344q0 -33 -22 -49q-76 -57 -162 -95q-141 -61 -291 -61q-72 0 -145 14q-227 43 -391 205q-219 219 -219.5 531.5 t219.5 531.5q164 162 391 205q73 14 145 14q150 0 291 -61q76 -31 143 -82q27 -18 27 -51v-93q0 -39 -32 -54q-16 -8 -32 -7.5t-32 7.5q-33 15 -33 54z" />
<glyph unicode="H" horiz-adv-x="1398" d="M309 1370v-504q-78 -28 -78 -111q0 -91 78 -120v-506h17q39 0 55 -33q8 -16 8 -32t-8 -32q-16 -32 -55 -32h-162q-39 0 -54 32q-8 16 -8 32t8 32q15 33 54 33h16v1241h-16q-39 0 -54 32q-8 16 -8 32t8 32q15 33 54 33h162q39 0 55 -33q8 -16 8 -32t-8 -32 q-16 -32 -55 -32h-17zM1233 0h-162q-39 0 -54 32q-8 16 -8 32t8 32q15 33 54 33h16v557h-735q-39 0 -54 32q-8 16 -8 32t8 32q15 33 54 33h735v555h-16q-39 0 -54 32q-8 16 -8 32t8 32q15 33 54 33h162q39 0 55 -33q8 -16 8 -32t-8 -32q-16 -32 -55 -32h-16v-1241h16 q39 0 55 -33q8 -16 8 -32t-8 -32q-16 -32 -55 -32z" />
<glyph unicode="I" horiz-adv-x="573" d="M350 1370v-1241h17q39 0 55 -33q8 -16 8 -32t-8 -32q-16 -32 -55 -32h-162q-39 0 -55 32q-8 16 -8.5 32t8.5 32q16 33 55 33h16v1241h-16q-39 0 -55 32q-8 16 -8.5 32t8.5 32q16 33 55 33h162q39 0 55 -33q8 -16 8 -32t-8 -32q-16 -32 -55 -32h-17z" />
<glyph unicode="J" horiz-adv-x="1282" d="M1014 1368v-924q0 -201 -131 -329q-131 -121 -283 -121q-39 0 -55 32q-8 16 -8 32t8 32q16 33 55 33q104 0 195 86q88 84 88 240v919h-17q-39 0 -54 33q-8 16 -8 32.5t8 32.5q15 33 54 33h164q39 0 55 -33q8 -16 8.5 -32.5t-8.5 -32.5q-16 -33 -55 -33h-16zM492 0 q-35 4 -91 25q-166 68 -235 225q-7 14 -7 28q0 11 4 21q9 25 34 35q13 5 26 5q12 0 24 -4q26 -9 36 -34q47 -109 166 -158q16 -6 49 -14q-22 -34 -22 -69q0 -30 16 -60z" />
<glyph unicode="K" horiz-adv-x="1275" d="M276 129h17q39 0 54 -33q8 -16 8 -32t-8 -32q-15 -32 -54 -32h-164q-39 0 -54 32q-8 16 -8 32t8 32q15 33 54 33h16v1241h-16q-39 0 -54 33q-8 16 -8 32.5t8 32.5q15 33 54 33h164q39 0 54 -33q8 -16 8 -32.5t-8 -32.5q-15 -33 -54 -33h-17v-717l611 725q-33 15 -34 53 q0 8 2 18q9 52 63 52h161q39 0 56 -33q8 -16 8 -32.5t-8 -32.5q-16 -33 -56 -33h-37l-397 -467q-7 1 -14 1q-36 0 -68 -18q-39 -22 -55 -63q-8 -22 -8 -42.5t8 -41.5l-232 -270v-340zM1147 0h-162q-35 0 -51 26.5t-8 57.5t37 41l-394 623q-10 17 -10 33.5t10 31.5 q20 31 54 31t59 -31l430 -684h35q39 0 55 -33q8 -16 8 -32t-8 -32q-16 -32 -55 -32z" />
<glyph unicode="L" horiz-adv-x="1220" d="M324 1370v-1184q0 -39 -33 -55q-16 -8 -32.5 -8t-32.5 8q-32 16 -31 55v1184h-19q-39 0 -54 32q-8 16 -8 32t8 32q15 33 54 33h164q39 0 54 -33q8 -16 8 -32t-8 -32q-15 -32 -54 -32h-16zM1057 0h-891q-35 0 -52 29q-11 17 -11 35q0 12 5 24q11 31 42 39q33 -63 112 -64 q74 4 107 66h620v29q0 39 32 54q16 8 32 8t32 -8q33 -15 33 -54v-92q0 -27 -16 -46.5t-45 -19.5z" />
<glyph unicode="M" horiz-adv-x="1585" d="M1219 1380q-24 18 -25 49q0 11 3 23q11 47 60 47h162q39 0 56 -33q8 -16 8 -32.5t-8 -32.5q-16 -33 -56 -33h-16v-1239h16q39 0 56 -33q8 -16 8 -32t-8 -32q-16 -32 -56 -32h-162q-39 0 -55 32q-8 16 -8 32t8 32q16 33 55 33h17v1126l-361 -360q-6 37 -39 66l-38 36z M328 0q39 0 54 32q8 16 8 32t-8 32q-15 33 -54 33h-19v1126l443 -442q20 -18 39 -18l51 30q17 24 17 45q0 25 -23 48l-471 464q24 18 24 49q0 10 -3 22q-11 46 -58 46h-164q-39 0 -54 -33q-8 -16 -8 -32.5t8 -32.5q15 -33 54 -33h16v-1239h-16q-39 0 -54 -33q-8 -16 -8 -32 t8 -32q15 -32 54 -32h164z" />
<glyph unicode="N" horiz-adv-x="1359" d="M322 1208v-1079h16q39 0 54 -33q8 -16 8 -32t-8 -32q-15 -32 -54 -32h-164q-39 0 -54 32q-8 16 -8 32t8 32q15 33 54 33h16v1241h-26q-39 0 -54 32q-8 16 -8 32t8 32q15 33 54 33h92q39 0 57 -33l387 -626q-76 0 -110 -68zM1194 129q39 0 55 -33q8 -16 8 -32t-8 -32 q-16 -32 -55 -32h-86q-43 0 -61 33l-400 647q-11 17 -11 34q0 16 9 31q18 33 50 36q3 0 6 1q28 0 51 -28l288 -463v1079h-16q-39 0 -54 32q-8 16 -8 32t8 32q15 33 54 33h162q39 0 55 -33q8 -16 8 -32t-8 -32q-16 -32 -55 -32h-17v-1241h25z" />
<glyph unicode="O" horiz-adv-x="1708" d="M1384.5 1280q219.5 -219 219.5 -530.5t-219.5 -530.5t-531.5 -219t-529 219q-147 147 -199 351q-23 93 -23 184q0 109 33 215q6 25 15 39q12 37 47 43q7 1 12 1q27 0 47 -22q16 -18 16 -40q0 -11 -4 -23.5t-6 -20.5q-32 -94 -32 -191q0 -72 18 -147q41 -174 166 -299 q180 -182 439 -182t441 182q180 182 180.5 440.5t-180.5 440.5q-182 182 -441 182t-439 -182q-61 -59 -103 -133q-41 54 -103 54q-6 0 -13 -1q53 98 129 170q217 219 529 219t531.5 -219z" />
<glyph unicode="P" horiz-adv-x="1179" d="M319 129h17q39 0 55 -33q8 -16 8 -32t-8 -32q-16 -32 -55 -32h-162q-39 0 -54 32q-8 16 -8 32t8 32q15 33 54 33h16v1241h-26q-39 0 -54 32q-8 16 -8 32t8 32q15 33 54 33h479q176 0 307 -127q127 -127 127 -307t-127 -307q-123 -123 -307 -123h-281q-39 0 -54 33 q-8 16 -7.5 32t7.5 32q15 32 54 32h281q133 0 217 84q90 90 90 217t-90 217q-92 88 -217 88h-324v-553q-37 -12 -55 -45q-23 -35 -23 -73q0 -19 6 -37q17 -57 72 -78v-455z" />
<glyph unicode="Q" horiz-adv-x="1705" d="M1384 1280q197 -195 218 -472q2 -31 2 -62q0 -241 -144 -437q-24 12 -51 12q-10 0 -20 -2q-61 -10 -92 -66q-16 -30 -15 -59q0 -26 12 -51q-196 -144 -437 -143q-30 0 -61 2q-278 20 -472 217q-219 219 -219.5 530.5t219.5 530.5q217 219 529 219t531 -219zM1454 242 l123 -129q18 -20 18 -42q0 -10 -4 -22q-12 -35 -44 -43q-8 -2 -16 -2q-24 0 -46 19l-125 131q-18 19 -18 40q0 11 5 22q13 34 45 42q8 2 15 2q24 0 47 -18zM414 1190q-182 -182 -182.5 -440t182.5 -441q180 -182 439 -182t441 182q180 182 180.5 440.5t-180.5 440.5 q-182 182 -441 182t-439 -182z" />
<glyph unicode="R" horiz-adv-x="1255" d="M322 129h16q39 0 55 -33q8 -16 8 -32t-8 -32q-16 -32 -55 -32h-162q-39 0 -54 32q-8 16 -8 32t8 32q15 33 54 33h17v1241h-27q-39 0 -55 32q-8 16 -8.5 32t8.5 32q16 33 55 33h479q176 0 307 -127q125 -127 125 -307t-125 -307q-117 -113 -286 -123l401 -506h23 q39 0 55 -33q8 -16 8 -32t-8 -32q-16 -32 -55 -32h-162q-35 0 -51.5 26.5t-8 58.5t36.5 42l-403 508h-137q-39 0 -55 33q-8 16 -7.5 32t7.5 32q15 32 55 32h280q131 0 217 84q88 90 88 217t-88 217q-92 88 -217 88h-323v-553q-35 -12 -58 -45q-21 -34 -21 -70q0 -20 7 -40 q18 -57 72 -78v-455z" />
<glyph unicode="S" horiz-adv-x="1218" d="M111 477q0 27 18 45.5t45 18.5h92q39 0 55 -33q8 -16 7.5 -32.5t-7.5 -32.5q-15 -32 -55 -31h-22q23 -102 100 -179q109 -102 255 -101q16 0 32 1q125 6 219 88q94 80 94 197q0 92 -56.5 164.5t-146.5 109.5q-16 6 -116 33q-37 10 -45.5 44t15.5 58q17 17 40 18 q10 0 20 -3q14 -4 59.5 -15.5t69.5 -19.5q129 -45 209 -150.5t80 -238.5q0 -170 -139 -293q-123 -109 -295 -121q-17 -1 -34 -1q-202 0 -349 138q-145 139 -145 336zM874 1147h25q-23 88 -86 145q-72 68 -168 86q-37 7 -71 7q-120 0 -216 -82q-84 -70 -84 -177 q0 -98 72 -174q55 -57 203 -88q-31 -37 -31 -78q0 -19 6 -38q-193 41 -276 143q-88 104 -88 235q0 156 123 263q80 70 184 96q57 14 112 14q47 0 95 -10q129 -29 219 -115q131 -125 131 -301q0 -23 -17.5 -40t-39.5 -17h-93q-39 0 -55 33q-8 16 -8 32.5t8 32.5q16 33 55 33z " />
<glyph unicode="T" horiz-adv-x="1374" d="M768 0h-162q-39 0 -54 32q-8 16 -8 32t8 32q15 33 54 33h17v1184q0 39 32 54q16 8 32.5 8t32.5 -8q32 -15 32 -54v-1184h16q39 0 55 -33q8 -16 8 -32t-8 -32q-16 -32 -55 -32zM578 1370h-347v-29q0 -39 -31 -54q-16 -8 -32 -8t-33 8q-33 15 -33 54v93q0 29 17.5 47 t46.5 18h1044q29 0 45.5 -19.5t16.5 -45.5v-93q0 -39 -32 -54q-16 -8 -32 -8t-32 8q-33 15 -33 54v29h-344q-35 63 -111.5 63t-109.5 -63z" />
<glyph unicode="U" horiz-adv-x="1492" d="M369 1370h-17v-862q0 -156 111 -270q111 -111 276 -111q39 0 56 -32q8 -16 8 -31.5t-8 -31.5q-16 -32 -56 -32q-219 0 -366 147q-150 150 -150 363v860h-16q-39 0 -54 32q-8 16 -8 32t8 32q15 33 54 33h162q39 0 55 -33q8 -16 8 -32t-8 -32q-16 -32 -55 -32zM838 137 q115 27 188 101q111 111 111 270v862h-17q-39 0 -55 32q-8 16 -8 32t8 32q16 33 55 33h162q39 0 55 -33q8 -16 8.5 -32t-8.5 -32q-16 -32 -55 -32h-16v-860q0 -217 -150 -363q-104 -106 -266 -137q13 28 13 55q0 36 -23 70q0 2 -2 2z" />
<glyph unicode="V" horiz-adv-x="1554" d="M317 1372l521 -1284q12 -27 0.5 -49.5t-35.5 -32.5q-19 -7 -34 -7q-35 0 -50 40l-543 1333h-10q-39 0 -55 33q-8 16 -8.5 32.5t8.5 31.5q16 32 55 32h162q39 0 55 -32q8 -16 8 -32t-8 -32q-16 -33 -55 -33h-11zM809 319l428 1053h-10q-39 0 -56 33q-8 16 -8 32.5t8 31.5 q16 32 56 32h162q39 0 55 -32q8 -16 8 -32t-8 -32q-16 -33 -55 -33h-11l-499 -1225z" />
<glyph unicode="W" horiz-adv-x="2054" d="M1389 129l-326 471l65 94l13 19l307 -445l295 1100h-14q-39 0 -56 33q-8 16 -8 32.5t8 32.5q16 33 56 33h161q39 0 55 -33q8 -16 7.5 -32.5t-7.5 -32.5q-15 -33 -55 -33h-14l-332 -1239h15q39 0 54 -33q8 -16 7.5 -32t-7.5 -32q-15 -32 -54 -32h-164q-37 0 -54 31 q-9 17 -9 34q0 14 6 28q14 32 51 36zM328 1368h-15l295 -1100l373 541q20 23 45 21.5t45 -19.5q22 -22 22 -45q0 -21 -18 -45l-407 -592q35 -4 48 -36q6 -14 6 -28q0 -17 -9 -34q-16 -31 -54 -31h-161q-39 0 -56 32q-8 16 -8 32t8 32q16 33 56 33h12l-332 1239h-14 q-39 0 -54 33q-8 16 -8 32.5t8 32.5q15 33 54 33h164q39 0 54 -33q8 -16 8 -32.5t-8 -32.5q-15 -33 -54 -33z" />
<glyph unicode="X" horiz-adv-x="1419" d="M403 129q37 -2 51 -35q6 -15 6 -29q0 -18 -9 -34q-16 -31 -56 -31h-162q-39 0 -54 32q-8 16 -7.5 32t7.5 32q15 33 54 33h17l391 621l-389 620h-19q-39 0 -54 32q-8 16 -7.5 32t7.5 32q15 33 54 33h162q39 0 56 -31q9 -17 9 -34q0 -14 -6 -29q-13 -33 -51 -35l316 -500 l313 500q-35 2 -48 35q-6 15 -6 29q0 18 9 34q16 31 53 31h162q39 0 55 -33q8 -16 8.5 -32t-8.5 -32q-16 -32 -55 -32h-16l-379 -602q-12 2 -23 2q-29 0 -57 -14q-39 -20 -57 -62q-10 -23 -11 -46q0 -36 25 -75zM1202 0q39 0 55 32q8 16 8.5 32t-8.5 32q-16 33 -55 33h-16 l-348 553q-18 29 -50 29h-8q-37 -4 -52 -33q-7 -14 -7 -30q0 -17 8 -36l303 -483q-27 -2 -41 -22.5t-13 -44t17.5 -43t44.5 -19.5h162z" />
<glyph unicode="Y" horiz-adv-x="1603" d="M375 1370l422 -655l420 655q-37 2 -51 35q-6 15 -6 29q0 18 9 34q16 31 54 31h163q39 0 55 -33q8 -16 7.5 -32t-7.5 -32q-15 -32 -55 -32h-16l-481 -752q-33 33 -78 38q-7 1 -14 1q-37 0 -72 -22q-8 -4 -20 -17l-484 752h-14q-39 0 -55 32q-8 16 -8.5 32t8.5 32 q16 33 55 33h162q37 0 53 -31q9 -17 9 -34q0 -14 -6 -29q-13 -33 -50 -35zM877 0h-162q-39 0 -55 32q-8 16 -7.5 32t7.5 32q15 33 55 33h16v406q0 39 32 55q16 8 32 8t32 -8q33 -16 33 -55v-406h17q39 0 55 -33q8 -16 8 -32t-8 -32q-16 -32 -55 -32z" />
<glyph unicode="Z" horiz-adv-x="1206" d="M115 100l409 643q24 30 56 30h3q34 -1 54 -31q10 -15 10 -31t-10 -33l-346 -549h682v25q0 39 32 54q16 8 32 8t32 -8q33 -15 33 -54v-84q2 -29 -15.5 -49.5t-46.5 -20.5h-860h-8q-32 0 -54 29q-14 17 -14 36q0 17 11 35zM102 1341v93q0 27 17.5 46t46.5 19h874 q31 0 51 -25q14 -18 13 -38q0 -8 -2 -17q-4 -14 -21 -39q-119 -176 -391 -614q-35 68 -108 68l336 536h-685v-29q0 -39 -32 -54q-16 -8 -33 -8l-33 8q-33 15 -33 54z" />
<glyph unicode="[" horiz-adv-x="452" d="M231 1368v-1239h58q29 0 45 -18.5t16 -45t-16.5 -46t-44.5 -19.5h-121q-27 0 -46.5 17.5t-19.5 45.5v1373q0 29 19.5 46t46.5 17h121q29 0 45 -19.5t16 -46t-16.5 -46t-44.5 -19.5h-58z" />
<glyph unicode="]" horiz-adv-x="452" d="M221 1368h-55q-31 0 -47.5 19.5t-16.5 46t16.5 46t47.5 19.5h121q27 0 45 -17.5t18 -45.5v-1373q0 -29 -18.5 -46t-44.5 -17h-121q-31 0 -47.5 19.5t-16.5 46t16.5 45t47.5 18.5h55v1239z" />
<glyph unicode="`" horiz-adv-x="487" d="M299 1292l-166 97q-49 27 -20 75q29 51 75 23l168 -96q47 -27 19 -78q-29 -48 -76 -21z" />
<glyph unicode="a" d="M1169 0q-20 0 -34.5 14.5t-14.5 34.5v39l70 84q28 35 28 74q0 26 -13 53q-32 68 -105 74h-10q31 75 31 155q0 40 -8 82q-24 125 -114 215q-123 123 -296 123t-293 -123q-123 -121 -123 -294t123 -295q106 -106 258 -120q20 -2 40 -2q128 0 232 74q51 33 104 101 q19 24 46 24q7 0 15 -2q36 -8 48 -38q5 -11 5 -23q0 -20 -13 -41q-74 -86 -139 -131q-136 -92 -300 -92q-27 0 -54 3q-196 17 -335 156q-158 160 -157.5 386.5t157.5 386.5q160 158 386.5 157.5t386.5 -157.5q4 -6 14 -17.5t16 -17.5v141q0 20 14.5 35.5t34.5 15.5h109 q39 0 54 -33q8 -16 8 -32.5t-8 -32.5q-15 -33 -54 -33h-29v-815h29q39 0 54 -33q8 -16 8 -32t-8 -32q-15 -32 -54 -32h-109z" />
<glyph unicode="b" horiz-adv-x="1386" d="M272 0h-106q-39 0 -55 32q-8 16 -8.5 32t8.5 32q16 33 55 33h27v1243h-27q-39 0 -55 33q-8 16 -8.5 32.5t8.5 31.5q16 32 55 32h106q20 0 35 -14t15 -35v-569q10 12 32 35q160 158 385.5 157.5t384.5 -157.5q160 -160 160 -386.5t-160 -386.5q-139 -139 -333 -156 q-27 -2 -54 -3q-163 0 -299 92q-72 45 -139 131q-15 18 -15 38q0 13 7 26q16 34 48 39q5 1 9 1q27 0 51 -24q53 -68 105 -101q105 -74 231 -74q20 0 40 2q151 13 259 120q123 123 123 296t-123 293q-121 123 -294 123t-296 -123q-90 -90 -113 -215q-8 -42 -8 -82 q0 -81 31 -155h-12q-74 -6 -105 -74q-13 -27 -13 -53q0 -38 28 -74l70 -84v-39q0 -20 -15 -34.5t-35 -14.5z" />
<glyph unicode="c" horiz-adv-x="1167" d="M1042 256q22 -19 22 -48q0 -25 -17 -44q-35 -41 -93 -80q-140 -98 -306 -98q-26 0 -52 3q-197 17 -336 156q-68 68 -113 162t-45 182q0 39 33 56q16 8 32.5 8t32.5 -8q32 -16 31 -56q0 -135 119 -253q106 -106 257 -120q20 -2 40 -2q127 0 236 74q43 33 69 62 q16 20 44 21t46 -15zM104 594q18 186 156 324q145 145 356 156q17 1 34 1q190 0 335 -117q26 -22 26 -47q0 -17 -12 -37l-45 -81q-23 -31 -55 -32h-2q-31 0 -52 30q-12 17 -12 34q0 15 9 31l18 33q-97 58 -211 58q-26 0 -53 -3q-145 -16 -246 -119q-96 -92 -119 -231 q-32 19 -63 19z" />
<glyph unicode="d" horiz-adv-x="1386" d="M1114 0q-20 0 -34.5 14.5t-14.5 34.5v39l70 84q28 35 28 74q0 26 -13 53q-32 68 -106 74h-10q31 75 32 155q0 40 -8 82q-24 125 -114 215q-123 123 -296 123t-294 -123q-123 -121 -123 -294t123 -295q106 -106 258 -120q20 -2 40 -2q128 0 233 74q51 33 104 101 q19 24 46 24q7 0 15 -2q36 -8 48 -38q5 -11 4 -23q0 -20 -12 -41q-74 -86 -140 -131q-136 -92 -299 -92q-27 0 -54 3q-196 17 -335 156q-158 160 -158 386.5t158 386.5q160 158 386 157.5t386 -157.5q6 -6 16.5 -17.5t14.5 -17.5v569q0 20 14.5 34.5t34.5 14.5h109 q39 0 54 -32q8 -16 8 -32t-8 -32q-15 -33 -54 -33h-29v-1243h29q39 0 54 -33q8 -16 8 -32t-8 -32q-15 -32 -54 -32h-109z" />
<glyph unicode="e" horiz-adv-x="1406" d="M920 172l-19 31q-11 19 -11 35q0 30 36 51q21 12 39 12q29 0 49 -33l45 -75q14 -20 11 -46t-23 -43q-145 -117 -335 -116q-17 0 -34 1q-211 11 -356 156q-160 160 -160 386.5t160 386.5q158 158 384 157.5t386 -157.5q154 -154 159 -373q0 -37 -16 -56q-16 -23 -47 -22 h-856q-39 0 -54 33q-8 16 -8 32t8 32q15 32 54 32h786q-23 135 -117 229q-123 123 -296 123t-293 -123q-74 -70 -105 -174q-63 -12 -88 -74q-10 -25 -10 -49q0 -36 22 -69q31 -43 76 -49q29 -94 105 -174q100 -100 244 -118q28 -3 56 -4q112 0 208 58z" />
<glyph unicode="f" horiz-adv-x="759" d="M596 1501q39 0 54 -33q8 -16 8 -32.5t-8 -32.5q-15 -33 -54 -33q-111 0 -195 -84q-68 -61 -84 -158q-57 -20 -75 -78q-7 -21 -7 -42q0 -36 21 -70q23 -33 55 -45v-764h17q39 0 55 -33q8 -16 8 -32t-8 -32q-16 -32 -55 -32h-162q-39 0 -55 32q-8 16 -8.5 32t8.5 32 q16 33 55 33h16v922q0 205 131 327q127 123 283 123zM440 1075q31 0 47.5 -19.5t16.5 -46t-16.5 -46t-47.5 -19.5h-121q-39 0 -54 33q-8 16 -7.5 32.5t7.5 32.5q15 33 54 33h121z" />
<glyph unicode="g" horiz-adv-x="1386" d="M971 268q19 24 46 25q7 0 14 -2q36 -8 48 -38q5 -11 5 -23q0 -20 -13 -42q-45 -55 -104 -100q-140 -102 -312 -102q-24 0 -49 2q-201 16 -344 157q-158 160 -158 386.5t158 386.5q160 158 386 157.5t386 -157.5q6 -6 16.5 -17.5t14.5 -17.5v141q0 20 14.5 35.5t34.5 15.5 h109q39 0 54 -33q8 -16 8 -32.5t-8 -32.5q-15 -33 -54 -33h-29v-850q0 -268 -160 -428q-145 -145 -347 -158q-18 -1 -35 -1q-181 0 -328 118q-18 14 -22.5 38t7.5 44l45 82q23 31 56 32h2q31 0 52 -29q12 -16 11 -33q0 -15 -8 -31l-18 -35q97 -56 203 -56q27 0 55 4 q137 17 237 115q121 123 121 330l53 66q28 35 28 72q0 26 -13 55q-33 68 -107 73h-2q42 83 42 176q0 35 -6 71q-22 132 -116 226q-123 123 -296 123t-294 -123q-123 -121 -123 -294t123 -295q109 -109 261 -120l35 -2q132 0 239 76q53 39 82 78z" />
<glyph unicode="h" horiz-adv-x="1351" d="M190 1372h-26q-39 0 -54 33q-8 16 -8 32.5t8 31.5q15 32 54 32h106q20 0 36 -14t16 -35v-448l-48 -50q-36 -36 -36 -81q0 -21 8 -43q25 -71 96 -85q2 0 7 -1t7 -1q-35 -76 -34 -192v-422h16q39 0 54 -33q8 -16 8 -32t-8 -32q-15 -32 -54 -32h-164q-39 0 -54 32 q-8 16 -8 32t8 32q15 33 54 33h16v1243zM408 821q-20 -18 -43 -18q-10 0 -21 4q-35 12 -44 44q-2 8 -2 16q0 23 19 46q78 74 125 99q110 63 235 63q34 0 68 -5q164 -22 283 -138q141 -143 141 -387v-416h19q39 0 54 -33q8 -16 8 -32t-8 -32q-15 -32 -54 -32h-164 q-39 0 -54 32q-8 16 -8 32t8 32q15 33 54 33h16v416q0 193 -104 295q-86 88 -208 103q-26 3 -51 3q-93 0 -173 -45q-45 -25 -96 -80z" />
<glyph unicode="i" horiz-adv-x="499" d="M166 946q-39 0 -54 33q-8 16 -8 32.5t8 31.5q15 32 54 32h84q27 0 45 -17.5t18 -45.5v-883h19q39 0 54 -33q8 -16 8 -32t-8 -32q-15 -32 -54 -32h-164q-39 0 -54 32q-8 16 -8 32t8 32q15 33 54 33h16v817h-18zM244 1501q39 0 67.5 -28.5t28.5 -67.5t-28.5 -68.5 t-67.5 -29.5q-41 0 -69 28.5t-28 69.5q0 39 28 67.5t69 28.5z" />
<glyph unicode="j" horiz-adv-x="483" d="M365 -43q0 -205 -132 -328q-127 -123 -282 -123q-39 0 -54 33q-8 16 -8 32.5t8 33.5q15 33 54 33q106 0 194 83q90 86 91 238v985h-27q-39 0 -55 32q-8 16 -8.5 32t8.5 32q16 33 55 33h88q27 2 47.5 -14.5t20.5 -46.5v-1055zM299 1501q33 0 57.5 -23.5t24.5 -56 t-24.5 -57.5t-57.5 -25t-56.5 25t-23.5 57.5t23.5 56t56.5 23.5z" />
<glyph unicode="k" horiz-adv-x="1132" d="M193 1372h-27q-39 0 -55 33q-8 16 -8.5 32.5t8.5 31.5q16 32 55 32h106q20 0 35 -14t15 -35v-907l432 399h-4q-39 0 -56 33q-8 16 -8 32.5t8 32.5q16 33 56 33h163q27 0 50 -22q23 -26 22.5 -48.5t-22.5 -41.5l-336 -312q-23 11 -48 11t-52 -12q-52 -24 -70 -77 q-6 -19 -6 -36q0 -21 8 -41l-131 -123l-2 -2q-2 -2 -4 -2v-240h16q39 0 55 -33q8 -16 8 -32t-8 -32q-16 -32 -55 -32h-162q-39 0 -55 32q-8 16 -8 32t8 32q16 33 55 33h17v1243zM969 0h-164q-39 0 -54 32q-8 16 -8 32t8 32q15 33 54 33l-281 369q-15 18 -14 38q0 13 6 26 q16 34 49 39q5 1 10 1q27 0 52 -24l340 -449h2q39 0 54 -33q8 -16 8 -32t-8 -32q-15 -32 -54 -32z" />
<glyph unicode="l" horiz-adv-x="759" d="M182 1370h-16q-39 0 -55 33q-8 16 -8.5 32.5t8.5 32.5q16 33 55 33h162q39 0 55 -33q8 -16 8 -32.5t-8 -32.5q-16 -33 -55 -33h-17v-917q0 -152 90 -240q88 -84 195 -84q39 0 54 -33q8 -16 8 -32t-8 -32q-15 -32 -54 -32q-154 0 -283 121q-131 125 -131 330v919z" />
<glyph unicode="m" horiz-adv-x="2011" d="M193 944h-29q-39 0 -54 33q-8 16 -8 32.5t8 32.5q15 33 54 33h108q20 0 35 -15.5t15 -35.5v-6q-31 -25 -60 -53q-39 -37 -39 -83q0 -19 7 -39q24 -69 96 -83q6 -2 20 -2q-25 -57 -24 -123v-506h16q39 0 54 -33q8 -16 8 -32t-8 -32q-15 -32 -54 -32h-164q-39 0 -54 32 q-8 16 -8 32t8 32q15 33 54 33h19v815zM389 831q-20 -20 -41 -19q-20 0 -43 17q-28 23 -27 48q0 16 11 32q8 16 39 43q43 39 92 66q98 56 211 56q31 0 62 -4q148 -19 253 -124q45 -47 64 -84q23 37 65 84q129 127 311.5 127t311.5 -127q131 -131 131 -315v-502h16 q39 0 56 -33q8 -16 8 -32t-8 -32q-16 -32 -56 -32h-162q-39 0 -55 32q-8 16 -8 32t8 32q16 33 55 33h17v506q0 131 -92 219q-90 92 -220.5 92t-222.5 -92q-90 -90 -90 -209v-516h17q39 0 55 -33q8 -16 8 -32t-8 -32q-16 -32 -55 -32h-162q-39 0 -56 32q-8 16 -8 32t8 32 q16 33 56 33h16v516q0 121 -92 209q-74 76 -179 90q-23 3 -45 3q-79 0 -149 -40q-39 -23 -92 -76z" />
<glyph unicode="n" horiz-adv-x="1351" d="M190 944h-26q-39 0 -54 33q-8 16 -8 32.5t8 32.5q15 33 54 33h106q20 0 36 -15.5t16 -35.5v-31q-14 -12 -39 -37q-31 -31 -45 -57q-15 -27 -15 -53q0 -32 22 -63q40 -56 103 -58q-27 -70 -26 -174v-422h16q39 0 54 -33q8 -16 8 -32t-8 -32q-15 -32 -54 -32h-164 q-39 0 -54 32q-8 16 -8 32t8 32q15 33 54 33h16v815zM586 1065q48 9 94 9q71 0 141 -20q117 -34 207 -122q141 -143 141 -387v-416h19q39 0 54 -33q8 -16 8 -32t-8 -32q-15 -32 -54 -32h-164q-39 0 -54 32q-8 16 -8 32t8 32q15 33 54 33h16v416q0 193 -104 295 q-108 108 -247 108q-37 0 -77 -8q-117 -20 -219 -137q-20 -22 -43 -23q-19 0 -41 16q-31 22 -31 49q0 14 9 29q16 23 37 44q117 120 262 147z" />
<glyph unicode="o" horiz-adv-x="1366" d="M1069 922q158 -154 158 -375q0 -39 -32 -54q-16 -8 -32 -8l-31 8q-32 15 -32 54q0 164 -121 284.5t-295 120.5t-295 -120.5t-121 -295t121 -295t295 -120.5t295 121q84 84 111 204q34 -22 69 -22q30 0 60 16q-29 -168 -150 -288q-158 -158 -385 -158t-385 157.5t-158 385 t158 385.5q158 160 385 160t385 -160z" />
<glyph unicode="p" horiz-adv-x="1386" d="M272 1075q20 0 35 -14t15 -37v-131q20 25 32 35q160 160 385.5 159.5t384.5 -159.5q160 -158 160 -384.5t-160 -385.5q-137 -137 -330 -157q-30 -3 -60 -3q-158 0 -292 88q-74 47 -139 127q-15 19 -15 39q0 12 6 24q15 33 48 39l12 2q26 0 49 -22q43 -53 84 -84 q111 -85 250 -85q15 0 30 1q157 10 267 121q123 123 123 296t-123 294q-121 123 -294 123t-296 -123q-92 -92 -114 -222q-7 -39 -7 -77q0 -86 35 -164q-39 0 -72.5 -23.5t-47.5 -64.5q-6 -18 -6 -35q0 -38 28 -74l62 -76v-544q0 -23 -14.5 -37.5t-35.5 -14.5h-106 q-39 0 -55 33q-8 16 -8.5 32.5t8.5 33.5q16 33 55 33h27v1306h-27q-39 0 -55 33q-8 16 -8.5 32.5t8.5 32.5q16 33 55 33h106z" />
<glyph unicode="q" horiz-adv-x="1386" d="M1114 1075h109q39 0 54 -33q8 -16 8 -32.5t-8 -32.5q-15 -33 -54 -33h-29v-1306h29q39 0 54 -33q8 -16 8 -32.5t-8 -33.5q-15 -33 -54 -33h-109q-20 0 -34.5 15.5t-14.5 36.5v544l63 76q27 33 28 74q0 17 -5 35q-14 41 -48 64.5t-73 23.5q35 77 35 162q0 39 -7 79 q-24 129 -114 222q-123 123 -296 123t-294 -123q-123 -121 -123 -294t123 -296q111 -111 268 -121q15 -1 30 -1q138 0 249 85q33 25 84 84q19 24 45 24q8 0 16 -3q36 -9 47 -40q4 -11 4 -22q0 -20 -14 -41q-61 -78 -137 -127q-133 -88 -291 -88q-30 0 -60 3 q-194 19 -333 157q-158 160 -158 386t158 384q160 160 386 159.5t386 -159.5q10 -10 31 -35v131q0 20 14.5 35.5t34.5 15.5z" />
<glyph unicode="r" horiz-adv-x="968" d="M272 1075q20 0 35 -15.5t15 -35.5v-63l-52 -52q-36 -37 -35 -80q0 -19 7 -39q23 -67 92 -83q16 -4 26 -5q-39 -86 -38 -206v-447q0 -20 -14.5 -34.5t-35.5 -14.5h-106q-39 0 -55 32q-8 16 -8.5 32t8.5 32q16 33 55 33h27v815h-27q-39 0 -55 33q-8 16 -8.5 32.5t8.5 32.5 q16 33 55 33h106zM401 778l24 25l28 28l24 23q113 92 260 92v-26q0 -39 33 -55q16 -8 32.5 -7.5t32.5 7.5q32 15 31 55v92q0 31 -19 47q-17 15 -42 14h-6h-56q-203 0 -350 -123l-82 -82q-20 -19 -20 -41q0 -10 4 -20q12 -35 44 -44q9 -3 17 -3q23 0 45 18z" />
<glyph unicode="s" horiz-adv-x="993" d="M248 287q29 -80 109 -124q71 -39 148 -39q11 0 21 1q86 6 159 56t73 132q0 117 -152 172q-47 14 -82 23q-39 8 -47 43q-2 9 -2 18q0 24 17 45q18 22 44 23q8 0 17 -2q8 -2 45 -10.5t57 -14.5q102 -33 169 -112.5t67 -184.5q0 -133 -108.5 -219t-245.5 -94q-15 -1 -31 -1 q-148 0 -269 92q-134 101 -135 263q0 27 20.5 45.5t45.5 18.5h102q39 0 55 -33q8 -16 7.5 -32.5t-7.5 -33.5q-15 -33 -55 -32h-22zM422 528l-25 7q-115 33 -176 94q-80 76 -80 190q0 84 47.5 149.5t123 100.5t165.5 35q43 0 88 -8q119 -23 203 -109t84 -205q0 -25 -18.5 -41 t-42.5 -16h-72h-29q-39 0 -55 33q-8 16 -8 32t8 32q16 32 55 32h25q-45 106 -178 131q-24 4 -48 4q-67 0 -134 -34q-91 -46 -91 -136q0 -63 48 -103t118 -57l19 -6q-34 -37 -34 -81q0 -21 7 -44z" />
<glyph unicode="t" horiz-adv-x="759" d="M182 1370h-16q-39 0 -55 33q-8 16 -8.5 32.5t8.5 32.5q16 33 55 33h162q39 0 55 -33q8 -16 8 -32.5t-8 -32.5q-16 -33 -55 -33h-17v-242q-37 -14 -57 -45q-21 -33 -21 -70q0 -19 6 -39q17 -58 72 -79v-442q0 -152 90 -240q88 -84 195 -84q39 0 54 -33q8 -16 8 -32t-8 -32 q-15 -32 -54 -32q-154 0 -283 121q-131 125 -131 330v919zM354 1075h123q31 0 47.5 -19.5t16.5 -46t-16.5 -46t-47.5 -19.5h-123q-39 0 -55 33q-8 16 -8 32.5t8 32.5q16 33 55 33z" />
<glyph unicode="u" horiz-adv-x="1331" d="M1149 129h29q39 0 54 -33q8 -16 8 -32t-8 -32q-15 -32 -54 -32h-109q-20 0 -34.5 14.5t-14.5 34.5v33q6 6 18.5 17.5t18.5 17.5q37 43 45 57q15 28 15 55q0 32 -21 63q-39 56 -103 56q27 70 27 174v422h-16q-39 0 -56 33q-8 16 -8 32.5t8 32.5q16 33 56 33h161 q39 0 56 -33q8 -16 8 -32.5t-8 -32.5q-16 -33 -56 -33h-16v-815zM754 10q-47 -9 -94 -9q-70 0 -141 21q-118 34 -206 121q-143 143 -143 387v414h-16q-39 0 -55 33q-8 16 -7.5 32.5t7.5 32.5q15 33 55 33h163q39 0 55 -33q8 -16 7.5 -32.5t-7.5 -32.5q-15 -33 -55 -33h-18 v-414q0 -193 104 -297q106 -106 247 -106q38 0 79 8q119 23 217 135q20 23 44 23q19 0 40 -14q31 -22 31 -49q0 -14 -8 -29q-8 -16 -37 -45q-110 -117 -262 -146z" />
<glyph unicode="v" horiz-adv-x="1396" d="M1221 944l-420 -819l-72 137l352 682h-12q-39 0 -54 33q-8 16 -8 32.5t8 32.5q15 33 54 33h164q39 0 54 -33q8 -16 8 -32.5t-8 -32.5q-15 -33 -54 -33h-12zM641 33q19 -35 49 -35q17 0 37 10q35 19 36 50q0 15 -9 34l-439 852h13q39 0 54 33q8 16 8 32.5t-8 32.5 q-15 33 -54 33h-164q-39 0 -54 -33q-8 -16 -8 -32.5t8 -32.5q15 -33 54 -33h12z" />
<glyph unicode="w" horiz-adv-x="1988" d="M1303 221l370 723h-12q-39 0 -54 33q-8 16 -8 32.5t8 32.5q15 33 54 33h164q39 0 54 -33q8 -16 8 -32.5t-8 -32.5q-15 -33 -54 -33h-13l-415 -815q33 -6 44 -38t-5.5 -61.5t-53.5 -29.5h-161q-37 0 -53.5 29.5t-5 61.5t43.5 38l-178 397l68 152zM688 221l250 555 q18 36 48 37q16 0 36 -10q36 -16 36 -47q0 -16 -9 -35l-265 -592q33 -6 44.5 -38t-5 -61.5t-53.5 -29.5h-164q-27 0 -44 18.5t-18 41t11 43t37 26.5l-416 815h-10q-39 0 -55 33q-8 16 -8.5 32.5t8.5 32.5q16 33 55 33h162q39 0 55 -33q8 -16 8 -32.5t-8 -32.5 q-16 -33 -55 -33h-11z" />
<glyph unicode="x" horiz-adv-x="1083" d="M915 944l-272 -379q-18 5 -36 6q-31 0 -60 -16q-47 -25 -62 -76q-6 -18 -6 -36q0 -36 25 -70l-176 -244q39 0 55 -33q8 -16 8 -32t-8 -32q-16 -32 -55 -32h-162q-39 0 -55 32q-8 16 -8.5 32t8.5 32q16 33 55 33h2l295 408l-295 407h-2q-39 0 -55 33q-8 16 -8.5 32.5 t8.5 32.5q16 33 55 33h162q39 0 55 -33q8 -16 8 -32.5t-8 -32.5q-16 -33 -55 -33l215 -297l213 297q-39 0 -55 33q-8 16 -7.5 32.5t7.5 32.5q15 33 55 33h164q39 0 54 -33q8 -16 8 -32.5t-8 -32.5q-15 -33 -54 -33h-5zM920 0h-164q-39 0 -55 32q-8 16 -7.5 32t7.5 32 q15 33 55 33l-201 279q-13 18 -13 37q0 14 8 28q17 33 50 37q4 1 8 0q28 0 51 -25l259 -356h2q39 0 54 -33q8 -16 8 -32t-8 -32q-15 -32 -54 -32z" />
<glyph unicode="y" horiz-adv-x="1296" d="M274 944l373 -721q9 -16 9 -31q0 -17 -12 -33q-21 -29 -52 -29h-2q-33 1 -55 34l-400 780h-10q-39 0 -55 33q-8 16 -8.5 32.5t8.5 32.5q16 33 55 33h162q39 0 55 -33q8 -16 8 -32.5t-8 -32.5q-16 -33 -55 -33h-13zM569 68l20 -2q73 0 109 71q15 26 15 53q0 29 -17 60 l-16 35l338 659h-10q-39 0 -56 33q-8 16 -8 32.5t8 32.5q16 33 56 33h161q39 0 56 -33q8 -16 8 -32.5t-8 -32.5q-16 -33 -56 -33h-12l-717 -1405q-15 -33 -52 -33h-9h-60q-39 0 -54 33q-8 16 -7.5 32.5t7.5 33.5q15 33 54 33h29z" />
<glyph unicode="z" horiz-adv-x="1101" d="M975 958l-334 -413q-29 72 -102 82l258 317h-566v-26q0 -39 -31 -55q-16 -8 -32 -7.5t-33 7.5q-33 15 -33 55v92q0 27 16.5 46t45.5 19h770q31 0 50 -25q15 -19 15 -41q0 -7 -2 -14q-4 -14 -22 -37zM573 463l-268 -334h563v29q0 39 33 54q16 8 32.5 8t32.5 -8 q32 -15 31 -54v-92q0 -27 -16 -46.5t-45 -19.5h-770q-31 0 -50 26q-14 18 -14 37q0 8 2 17q2 6 23 37l348 428q19 24 45 23q8 0 16 -2q36 -9 47 -40q4 -11 4 -22q-1 -20 -14 -41z" />
<glyph unicode="{" horiz-adv-x="665" d="M104 750q0 39 33 55q53 29 83 92.5t36 113.5t10 138q4 72 8.5 109.5t17.5 92t36.5 81t66.5 47t105 20.5q27 0 45 -19.5t18 -46t-18.5 -45t-44.5 -18.5q-33 0 -54.5 -16.5t-32 -55t-13.5 -66.5t-7 -89q-4 -92 -10 -145.5t-32.5 -127t-76.5 -120.5q49 -47 76 -121t33 -127 t10 -146q4 -61 7 -88.5t13.5 -66.5t32 -55.5t54.5 -16.5q27 0 45 -18.5t18 -45t-18.5 -46t-44.5 -19.5q-61 0 -104.5 20.5t-67 47t-36.5 81t-17.5 92.5t-8.5 109q-4 88 -10 138.5t-36 114t-83 91.5q-37 19 -33 56z" />
<glyph unicode="}" horiz-adv-x="663" d="M561 749.5q0 -36.5 -35 -55.5q-53 -29 -81.5 -92t-35 -111.5t-12.5 -140.5q-4 -74 -7 -109.5t-17.5 -91t-37 -82t-65.5 -47t-104 -20.5q-27 0 -45.5 19.5t-18.5 46t18.5 45t45.5 18.5q33 0 54.5 16.5t30.5 54.5t13 67.5t6 88.5q6 96 12.5 146.5t33 125t75.5 122.5 q-49 47 -75.5 121.5t-33 125t-12.5 146.5q-2 59 -6 89t-13 67.5t-30.5 54t-54.5 16.5q-27 0 -45.5 18.5t-18.5 45t18.5 46t45.5 19.5q61 0 104 -20.5t65.5 -47t37 -82t17.5 -91t7 -109.5q6 -92 12.5 -140t35 -111.5t81.5 -92.5q35 -19 35 -55.5z" />
<glyph unicode="&#xa1;" horiz-adv-x="335" d="M98 1440q0 29 19.5 45t46.5 16q25 0 44 -16.5t19 -44.5v-158q0 -29 -19.5 -46t-43.5 -17q-27 0 -46.5 17t-19.5 46v158zM98 63v977q0 39 33 54.5t64.5 -1t31.5 -55.5v-975q0 -29 -19.5 -46t-43.5 -17q-27 0 -46.5 17t-19.5 46z" />
<glyph unicode="&#xa2;" horiz-adv-x="1296" d="M1110 266q20 -18 21.5 -44.5t-17.5 -47.5q-43 -47 -92 -80q-119 -84 -268 -96v-64q0 -31 -19.5 -47t-46 -16t-46 16.5t-19.5 46.5v70q-172 29 -295 152q-68 68 -113 162t-45 182q0 39 31.5 54t64.5 0t33 -54q0 -135 119 -254q106 -106 256.5 -119.5t273.5 72.5 q27 16 72 61q16 20 43 21t47 -15zM754 1147v-64q168 -12 297 -116q45 -35 16 -82l-45 -82q-23 -33 -55.5 -33t-55 29.5t-4.5 64.5l19 35q-117 72 -261.5 55.5t-246.5 -118.5q-96 -96 -117 -232q-66 39 -129 0q18 184 156 322q119 121 295 151v70q0 31 19.5 47t46 16t46 -16 t19.5 -47z" />
<glyph unicode="&#xa3;" horiz-adv-x="1191" d="M227 623h-61q-31 0 -47.5 19.5t-16.5 43.5q0 27 16.5 46.5t47.5 19.5h61v313q0 180 127 307t308 127h176q27 0 45 -18.5t18 -46.5v-91q0 -39 -32.5 -55t-64.5 0.5t-32 54.5v27h-110q-129 0 -218 -88q-90 -90 -90 -217v-313h469q31 0 47.5 -19.5t16.5 -46.5 q0 -25 -16.5 -44t-47.5 -19h-469q0 -74 1 -219.5t1 -217.5q0 -39 -32.5 -55t-64.5 0t-32 55v437zM403 129h558v27q0 39 31.5 55t64.5 0t33 -55v-90q0 -27 -16.5 -46.5t-45.5 -19.5h-827q-55 0 -61.5 57.5t42.5 69.5q35 -63 113 -64q77 5 108 66z" />
<glyph unicode="&#xa5;" horiz-adv-x="1509" d="M334 1370l422 -655l420 655q-37 2 -50.5 35t3 63.5t53.5 30.5h164q39 0 54 -32.5t-0.5 -64.5t-53.5 -32h-17l-455 -711h177q29 0 46 -19t17 -46q0 -25 -17.5 -44.5t-45.5 -19.5h-232v-8q0 -39 -32.5 -55t-64.5 0t-32 55v8h-231q-29 0 -45.5 19.5t-16.5 44.5q0 27 16.5 46 t45.5 19h178l-457 711h-14q-39 0 -55.5 32t0 64.5t55.5 32.5h162q37 0 53 -30.5t3 -63.5t-50 -35zM840 430h211q29 0 46 -19.5t17 -43.5q0 -27 -17.5 -46.5t-45.5 -19.5h-232v-172h17q39 0 55 -33t-0.5 -64.5t-54.5 -31.5h-162q-39 0 -54.5 31.5t0 64.5t54.5 33h16v172h-231 q-29 0 -45.5 19.5t-16.5 46.5q0 25 16.5 44t45.5 19h213q33 -27 74.5 -30t80.5 22q2 0 6.5 4t6.5 4z" />
<glyph unicode="&#xa8;" horiz-adv-x="772" d="M279 1290q0 -35 -26 -61.5t-62.5 -26.5t-62.5 26.5t-26 61.5q0 37 26 63.5t62.5 26.5t62.5 -26.5t26 -63.5zM670 1290q0 -35 -26 -61.5t-62.5 -26.5t-62 26.5t-25.5 61.5q0 37 25.5 63.5t62 26.5t62.5 -26.5t26 -63.5z" />
<glyph unicode="&#xa9;" horiz-adv-x="1097" d="M311 791q-23 16 -51 4q16 98 84 166q63 63 153.5 80.5t172.5 -17.5q49 -23 96 -66q6 -8 6 -18v-35q0 -25 -25.5 -24.5t-25.5 24.5v27q-33 31 -70 45q-70 29 -144.5 15.5t-125.5 -66.5q-58 -57 -70 -135zM729 580q16 16 35 2q18 -18 2 -37q-47 -43 -96 -66 q-82 -35 -172 -17.5t-154 81.5q-86 86 -86 209q0 25 25.5 24.5t25.5 -24.5q0 -102 72 -174q51 -53 126 -66.5t144 14.5q43 19 78 54zM864 1067q131 -131 131 -315.5t-131 -315.5t-315 -131t-315.5 131t-131.5 315.5t131.5 315.5t315.5 131t315 -131zM825 475 q115 115 115 277.5t-115 277.5q-113 113 -276.5 113t-278.5 -113q-115 -115 -114.5 -277.5t115 -277.5t278 -115t276.5 115z" />
<glyph unicode="&#xaa;" d="M1169 0q-20 0 -34.5 14.5t-14.5 34.5v39l70 84q28 35 28 74q0 26 -13 53q-32 68 -105 74h-10q31 75 31 155q0 40 -8 82q-24 125 -114 215q-123 123 -296 123t-293 -123q-123 -121 -123 -294t123 -295q106 -106 258 -120q20 -2 40 -2q128 0 232 74q51 33 104 101 q19 24 46 24q7 0 15 -2q36 -8 48 -38q5 -11 5 -23q0 -20 -13 -41q-74 -86 -139 -131q-136 -92 -300 -92q-27 0 -54 3q-196 17 -335 156q-158 160 -157.5 386.5t157.5 386.5q160 158 386.5 157.5t386.5 -157.5q4 -6 14 -17.5t16 -17.5v141q0 20 14.5 35.5t34.5 15.5h109 q39 0 54 -33q8 -16 8 -32.5t-8 -32.5q-15 -33 -54 -33h-29v-815h29q39 0 54 -33q8 -16 8 -32t-8 -32q-15 -32 -54 -32h-109z" />
<glyph unicode="&#xad;" horiz-adv-x="937" d="M772 666h-608q-29 0 -45.5 18t-16.5 45t16.5 46.5t45.5 19.5h608q31 0 47.5 -19.5t16.5 -46.5t-16.5 -45t-47.5 -18z" />
<glyph unicode="&#xae;" horiz-adv-x="1097" d="M731 508q25 0 25 -25.5t-25 -25.5h-63q-23 0 -26 21.5t15 27.5l-159 201h-54q-25 0 -24.5 25.5t24.5 25.5h111q53 0 86 33q35 35 35 85t-35 84.5t-86 34.5h-127v-217q-12 -4 -22 -18q-14 -20 -7 -43t29 -31v-178h6q25 0 25 -25.5t-25 -25.5h-63q-25 0 -25 25.5t25 25.5h6 v487h-10q-25 0 -25 26t25 26h188q72 0 121 -50q51 -51 51 -121.5t-51 -119.5q-45 -45 -113 -49l158 -199h10zM864 1067q131 -131 131 -315.5t-131 -315.5t-315 -131t-315.5 131t-131.5 315.5t131.5 315.5t315.5 131t315 -131zM825 475q115 115 115 277.5t-115 277.5 q-113 113 -276.5 113t-278.5 -113q-115 -115 -114.5 -277.5t115 -277.5t278 -115t276.5 115z" />
<glyph unicode="&#xb0;" horiz-adv-x="499" d="M387 1395q31 -84 -35 -150q-43 -43 -103.5 -43t-103.5 43q-57 57 -36 137q10 49 51 81t92 32q47 -2 84 -28.5t51 -71.5zM215 1315q35 -33 68 0q25 23 11.5 52.5t-44.5 29.5t-44.5 -29.5t9.5 -52.5z" />
<glyph unicode="&#xb2;" horiz-adv-x="1146" d="M981 0h-817q-29 0 -45.5 19.5t-16.5 46.5q0 25 27 59l130 160l169 204q70 82 135 148q29 29 64 16.5t44 -44t-16 -62.5q-96 -96 -356 -418h614v25q0 39 33 54t65.5 0t32.5 -54v-88q0 -29 -18 -47.5t-45 -18.5zM635 713q10 10 30.5 33.5t22.5 25.5q201 217 201 354 q0 106 -84 177q-123 106 -287 75q-96 -18 -168 -86q-94 -90 -94 -219q0 -23 -17.5 -40t-39.5 -17q-25 0 -41.5 17.5t-16.5 39.5q0 176 131 301q86 86 217 115q102 23 207 -4t185 -96q123 -106 123 -263q0 -113 -66 -222t-180 -236q-12 -12 -33 -37q-22 64 -90 82z" />
<glyph unicode="&#xb3;" horiz-adv-x="1114" d="M852 799l13 -12.5t14 -12.5q133 -131 133 -320.5t-133 -322.5q-131 -131 -334 -131q-39 0 -55.5 31.5t0 64.5t55.5 33q150 0 243 94q90 90 94.5 218t-75.5 227q-49 61 -148 61q-29 0 -46 19.5t-17 46t17.5 46t45.5 19.5q111 0 152 96q39 82 25.5 173.5t-78.5 156.5 q-82 82 -201 82t-203 -82q-82 -82 -82 -201q0 -27 -18 -45t-45 -18t-45.5 17.5t-18.5 43.5q-4 170 119 293q121 121 293 121t291 -121q121 -119 122 -287.5t-118 -289.5zM252 518q39 0 54.5 -32.5t0 -65.5t-54.5 -33h-16q23 -98 90 -164q51 -53 125 -80q-47 -57 -19 -127 q-113 31 -196 115q-133 137 -134 322q0 27 18.5 46t45.5 19h86z" />
<glyph unicode="&#xb4;" horiz-adv-x="487" d="M188 1292q-47 -29 -75.5 20.5t20.5 78.5l166 96q49 27 76 -23q29 -49 -19 -75z" />
<glyph unicode="&#xb9;" horiz-adv-x="661" d="M479 1436v-1307h17q39 0 55 -33t0 -64.5t-55 -31.5h-76h-6h-6h-74q-39 0 -55.5 31.5t0 64.5t55.5 33h16v1131l-131 -156q-18 -23 -43.5 -23t-46.5 19q-20 16 -24.5 39.5t14.5 48.5l237 280q27 31 58 31q27 0 46 -17t19 -46z" />
<glyph unicode="&#xba;" horiz-adv-x="1366" d="M1069 922q158 -154 158 -375q0 -39 -32 -54q-16 -8 -32 -8l-31 8q-32 15 -32 54q0 164 -121 284.5t-295 120.5t-295 -120.5t-121 -295t121 -295t295 -120.5t295 121q84 84 111 204q34 -22 69 -22q30 0 60 16q-29 -168 -150 -288q-158 -158 -385 -158t-385 157.5t-158 385 t158 385.5q158 160 385 160t385 -160z" />
<glyph unicode="&#xbf;" horiz-adv-x="1073" d="M934 498q27 0 45 -18.5t18 -47.5q0 -178 -127 -305t-307 -127t-307 127q-90 90 -117.5 218t15.5 247q37 111 184 270q96 102 137 201q25 57 84 31.5t37 -82.5q-47 -106 -164 -236q-115 -123 -149 -207q-39 -88 -23 -185t86 -167q88 -90 216 -90t218 90t90 217 q0 27 18.5 45.5t45.5 18.5zM492 1440q0 29 19 45t46 16t46.5 -16.5t19.5 -44.5v-158q0 -29 -19.5 -46t-46.5 -17t-46 17t-19 46v158z" />
<glyph unicode="&#xc0;" horiz-adv-x="1519" d="M760 1262l-258 -662h-15q-76 0 -108.5 -67.5t8.5 -126.5q10 -16 27 -29l-95 -248h9q39 0 54 -33t0 -64.5t-54 -31.5h-164q-39 0 -54.5 31.5t0 64.5t54.5 33h16l484 1243q-33 6 -44.5 38t5 61.5t53.5 29.5h164q27 0 44 -18.5t18 -41t-11 -43t-37 -26.5l483 -1243h15 q39 0 55 -33t0 -64.5t-55 -31.5h-162q-39 0 -55.5 31.5t0 64.5t55.5 33h8l-108 283h-605q-39 0 -55 31.5t0.5 64.5t54.5 33h553zM815 1597l-168 99q-47 29 -18 76q12 20 31.5 27t44.5 -5l167 -96q47 -29 19 -78q-29 -48 -76 -23z" />
<glyph unicode="&#xc1;" horiz-adv-x="1519" d="M760 1262l280 -721h-553q-39 0 -55 -33t0.5 -64.5t54.5 -31.5h605l108 -283h-8q-39 0 -55.5 -33t0 -64.5t55.5 -31.5h162q39 0 55 31.5t0 64.5t-55 33h-15l-483 1243q33 6 44 38t-5 61.5t-53 29.5h-164q-27 0 -44.5 -18.5t-18.5 -41t11.5 -43t37.5 -26.5l-484 -1243h-16 q-39 0 -54.5 -33t0 -64.5t54.5 -31.5h164q39 0 54 31.5t0 64.5t-54 33h-9l95 248q-16 12 -27 29q-41 59 -8 126.5t108 67.5h15zM705 1597q-47 -25 -76 23q-29 49 18 78l168 96q25 12 44.5 5t31.5 -27q29 -47 -19 -76z" />
<glyph unicode="&#xc2;" horiz-adv-x="1517" d="M1040 541l-280 721l-258 -662h-15q-76 0 -108.5 -67.5t8.5 -126.5q14 -20 27 -29l-97 -248h11q39 0 54 -33t0 -64.5t-54 -31.5h-164q-39 0 -54.5 31.5t0 64.5t54.5 33h16l484 1243q-33 6 -44.5 38t5 61.5t53.5 29.5h162q37 0 53 -29.5t5 -61.5t-44 -38l485 -1243h15 q39 0 54 -33t0 -64.5t-54 -31.5h-162q-39 0 -55.5 31.5t0 64.5t55.5 33h8l-110 283h-603q-39 0 -55 31.5t0.5 64.5t54.5 33h553zM829 1589l-73 74l-74 -74q-37 -41 -78 0q-16 16 -18 38t16 42l115 115q41 39 80 0l114 -115q39 -39 -2 -80t-80 0z" />
<glyph unicode="&#xc3;" horiz-adv-x="1519" d="M760 1262l-258 -662h-15q-76 0 -108.5 -67.5t8.5 -126.5q10 -16 27 -29l-95 -248h9q39 0 54 -33t0 -64.5t-54 -31.5h-164q-39 0 -54.5 31.5t0 64.5t54.5 33h16l484 1243q-33 6 -44.5 38t5 61.5t53.5 29.5h164q27 0 44 -18.5t18 -41t-11 -43t-37 -26.5l483 -1243h15 q39 0 55 -33t0 -64.5t-55 -31.5h-162q-39 0 -55.5 31.5t0 64.5t55.5 33h8l-108 283h-605q-39 0 -55 31.5t0.5 64.5t54.5 33h553zM647 1653q-20 -45 -69 -31q-41 14 -41 59q2 27 26 60q41 53 108.5 57t114.5 -43q6 -6 15.5 -19.5t13.5 -17.5q27 -27 49 4q2 2 5 11.5t8 13.5 q25 37 65 22q43 -14 39 -57q0 -31 -27 -61q-41 -53 -107.5 -57.5t-113.5 42.5q-6 6 -15 19.5t-13 17.5q-16 16 -39 6q-11 -6 -19 -26z" />
<glyph unicode="&#xc4;" horiz-adv-x="1519" d="M760 1262l-258 -662h-15q-76 0 -108.5 -67.5t8.5 -126.5q10 -16 27 -29l-95 -248h9q39 0 54 -33t0 -64.5t-54 -31.5h-164q-39 0 -54.5 31.5t0 64.5t54.5 33h16l484 1243q-33 6 -44.5 38t5 61.5t53.5 29.5h164q27 0 44 -18.5t18 -41t-11 -43t-37 -26.5l483 -1243h15 q39 0 55 -33t0 -64.5t-55 -31.5h-162q-39 0 -55.5 31.5t0 64.5t55.5 33h8l-108 283h-605q-39 0 -55 31.5t0.5 64.5t54.5 33h553zM653 1710q0 -35 -25.5 -61.5t-62.5 -26.5t-62.5 26.5t-25.5 61.5q0 37 25.5 63.5t62.5 26.5t62.5 -26.5t25.5 -63.5zM1044 1710 q0 -35 -25.5 -61.5t-62 -26.5t-62.5 26.5t-26 61.5q0 37 26 63.5t62.5 26.5t62 -26.5t25.5 -63.5z" />
<glyph unicode="&#xc5;" horiz-adv-x="1517" d="M758 1260l-256 -662h-15q-76 0 -108.5 -67.5t8.5 -124.5q10 -16 27 -29l-95 -248h9q39 0 54 -33t0 -64.5t-54 -31.5h-164q-39 0 -54.5 31.5t0 64.5t54.5 33h16l482 1241q-33 6 -44.5 38t5 60.5t53.5 28.5h164q37 0 53 -28.5t5 -60.5t-44 -38l483 -1241h15q39 0 55 -33 t0 -64.5t-55 -31.5h-162q-39 0 -55.5 31.5t0 64.5t55.5 33h8l-108 283h-603q-39 0 -55 31.5t0.5 63.5t54.5 32h551zM895 1735q31 -84 -35 -150q-41 -43 -102.5 -43t-104.5 43q-57 57 -37 137q10 49 51.5 81t92.5 30q45 0 83 -27.5t52 -70.5zM723 1655q14 -16 33.5 -16.5 t34.5 16.5q25 23 11 51.5t-44 30.5q-31 0 -44.5 -29.5t9.5 -52.5z" />
<glyph unicode="&#xc6;" horiz-adv-x="2230" d="M760 1260l-258 -660h-15q-78 0 -110.5 -67.5t10.5 -126.5q8 -16 27 -31l-97 -246h9q39 0 55 -33t0 -64.5t-55 -31.5h-162q-39 0 -54.5 31.5t0 64.5t54.5 33h14l486 1241q-33 6 -44.5 38t5 61.5t53.5 29.5h162q37 0 53 -29.5t5 -61.5t-44 -38l365 -930v930h-27 q-39 0 -55.5 32t0 64.5t55.5 32.5h872q31 0 47.5 -20.5t14.5 -46.5v-89q0 -39 -33 -55t-64.5 0.5t-31.5 54.5v27h-649v-504q-51 -18 -69.5 -67t0.5 -98.5t69 -67.5v-504h649v29q0 39 31.5 54t64.5 0t33 -54v-92q0 -27 -16.5 -46.5t-45.5 -19.5h-872q-39 0 -55.5 31.5t0 64.5 t55.5 33h8l-110 283h-603q-39 0 -55 31.5t0.5 64.5t54.5 33h553zM1890 684h-499q-39 0 -54.5 33t0 65.5t54.5 32.5h499q39 0 54.5 -32.5t0 -65.5t-54.5 -33z" />
<glyph unicode="&#xc8;" horiz-adv-x="1398" d="M414 1370v-504q-51 -18 -69.5 -67t1 -98.5t68.5 -67.5v-504h649v29q0 39 31.5 54t64.5 0t33 -54v-92q0 -27 -16.5 -46.5t-45.5 -19.5h-872q-39 0 -55.5 31.5t0 64.5t55.5 33h27v1241h-27q-39 0 -55.5 32t0 64.5t55.5 32.5h872q31 0 47.5 -20.5t14.5 -46.5v-89 q0 -39 -33 -55t-64.5 0.5t-31.5 54.5v27h-649zM750 1595l-168 99q-47 29 -19 75q12 20 31.5 27.5t44.5 -4.5l168 -96q47 -29 18 -78q-28 -48 -75 -23zM956 684h-499q-39 0 -54.5 33t0 65.5t54.5 32.5h499q39 0 54.5 -32.5t0 -65.5t-54.5 -33z" />
<glyph unicode="&#xc9;" horiz-adv-x="1372" d="M639 1595q-47 -25 -76 23q-29 49 19 78l168 96q25 12 44 5t31 -28q29 -47 -18 -75zM414 1370h649v-27q0 -39 31.5 -55t64.5 0.5t33 54.5v89q2 27 -14.5 47t-47.5 20h-872q-39 0 -55.5 -32.5t0 -64.5t55.5 -32h27v-1241h-27q-39 0 -55.5 -33t0 -64.5t55.5 -31.5h872 q29 0 45.5 19.5t16.5 46.5v92q0 39 -33 54t-64.5 0t-31.5 -54v-29h-649v504q-49 18 -68.5 67.5t-1.5 98.5t70 67v504zM956 684q39 0 54.5 33t0 65.5t-54.5 32.5h-499q-39 0 -54.5 -32.5t0 -65.5t54.5 -33h499z" />
<glyph unicode="&#xca;" horiz-adv-x="1376" d="M418 1370v-504q-51 -18 -69.5 -67t1 -98.5t68.5 -67.5v-504h649v29q0 39 31.5 54t64.5 0t33 -54v-92q0 -27 -16.5 -46.5t-44.5 -19.5h-873q-39 0 -55.5 31.5t0 64.5t55.5 33h27v1241h-27q-39 0 -55.5 32t0 64.5t55.5 32.5h873q31 0 47 -20.5t14 -46.5v-89q0 -39 -33 -55 t-64.5 0.5t-31.5 54.5v27h-649zM961 684h-500q-39 0 -54.5 33t0 65.5t54.5 32.5h500q39 0 54 -32.5t0 -65.5t-54 -33zM793 1589l-74 74l-74 -74q-37 -41 -78 0q-16 16 -18 38t16 42l115 115q41 39 80 0l114 -115q39 -39 -1.5 -80t-79.5 0z" />
<glyph unicode="&#xcb;" horiz-adv-x="1380" d="M408 1370v-504q-51 -18 -70 -67t0.5 -98.5t69.5 -67.5v-504h649v29q0 39 32.5 54t64.5 0t32 -54v-92q0 -27 -16.5 -46.5t-45.5 -19.5h-872q-39 0 -55.5 31.5t0 64.5t55.5 33h27v1241h-27q-39 0 -55.5 32t0 64.5t55.5 32.5h872q31 0 47.5 -20.5t14.5 -46.5v-89 q0 -39 -32 -55t-64.5 0.5t-32.5 54.5v27h-649zM950 684h-499q-39 0 -54.5 33t0 65.5t54.5 32.5h499q39 0 54.5 -32.5t0 -65.5t-54.5 -33zM608 1710q0 -35 -25.5 -61.5t-62.5 -26.5t-62.5 26.5t-25.5 61.5q0 37 25.5 63.5t62.5 26.5t62.5 -26.5t25.5 -63.5zM999 1710 q0 -35 -25.5 -61.5t-62.5 -26.5t-62.5 26.5t-25.5 61.5q0 37 25.5 63.5t62.5 26.5t62.5 -26.5t25.5 -63.5z" />
<glyph unicode="&#xcc;" horiz-adv-x="692" d="M410 1370v-1241h18q39 0 54.5 -33t0 -64.5t-54.5 -31.5h-164q-39 0 -54 31.5t0 64.5t54 33h17v1241h-17q-39 0 -54 32t0 64.5t54 32.5h164q39 0 54.5 -32.5t0 -64.5t-54.5 -32h-18zM401 1595l-168 99q-47 29 -18 75q12 20 31.5 27.5t44.5 -4.5l168 -96q47 -29 18 -78 q-29 -48 -76 -23z" />
<glyph unicode="&#xcd;" horiz-adv-x="669" d="M279 1595q-47 -25 -76 23q-29 49 18 78l168 96q25 12 44.5 5t31.5 -28q29 -47 -19 -75zM397 1370h19q39 0 54 32t0 64.5t-54 32.5h-164q-39 0 -54.5 -32.5t0 -64.5t54.5 -32h16v-1241h-16q-39 0 -54.5 -33t0 -64.5t54.5 -31.5h164q39 0 54 31.5t0 64.5t-54 33h-19v1241z " />
<glyph unicode="&#xce;" horiz-adv-x="669" d="M393 1370v-1241h19q39 0 54 -33t0 -64.5t-54 -31.5h-164q-39 0 -54.5 31.5t0 64.5t54.5 33h16v1241h-16q-39 0 -54.5 32t0 64.5t54.5 32.5h164q39 0 54 -32.5t0 -64.5t-54 -32h-19zM408 1589l-74 74l-74 -74q-37 -41 -78 0q-16 16 -18 38t16 42l115 115q41 39 80 0 l114 -115q39 -39 -1.5 -80t-79.5 0z" />
<glyph unicode="&#xcf;" horiz-adv-x="632" d="M383 1370v-1241h18q39 0 54.5 -33t0 -64.5t-54.5 -31.5h-163q-39 0 -54.5 31.5t0 64.5t54.5 33h16v1241h-16q-39 0 -54.5 32t0 64.5t54.5 32.5h163q39 0 54.5 -32.5t0 -64.5t-54.5 -32h-18zM209 1710q0 -35 -25.5 -61.5t-62.5 -26.5t-62.5 26.5t-25.5 61.5 q0 37 25.5 63.5t62.5 26.5t62.5 -26.5t25.5 -63.5zM600 1710q0 -35 -25.5 -61.5t-62.5 -26.5t-62.5 26.5t-25.5 61.5q0 37 25.5 63.5t62.5 26.5t62.5 -26.5t25.5 -63.5z" />
<glyph unicode="&#xd1;" horiz-adv-x="1359" d="M322 1208v-1079h16q39 0 54.5 -33t0 -64.5t-54.5 -31.5h-164q-39 0 -54.5 31.5t0 64.5t54.5 33h19v1241h-29q-39 0 -54.5 32t0 64.5t54.5 32.5h92q43 0 57 -33l387 -626q-74 0 -110 -66zM567 1651q-20 -45 -69 -31q-41 14 -41 59q2 27 26 60q41 53 108.5 57t115.5 -43 q6 -6 15 -19.5t13 -17.5q27 -27 49 4q2 2 5.5 11.5t7.5 13.5q25 37 65 22q43 -14 39 -57q0 -31 -27 -61q-41 -53 -107.5 -57.5t-113.5 42.5q-6 6 -15 19.5t-13 17.5q-16 16 -39 6q-11 -6 -19 -26zM1194 129q39 0 55.5 -33t0 -64.5t-55.5 -31.5h-86q-41 0 -59 33l-402 647 q-20 33 -1.5 65.5t50 36.5t56.5 -26l288 -465v1079h-16q-39 0 -54.5 32t0 64.5t54.5 32.5h164q39 0 54 -32.5t0 -64.5t-54 -32h-19v-1241h25z" />
<glyph unicode="&#xd2;" horiz-adv-x="1708" d="M1384.5 1282q219.5 -219 219.5 -531.5t-219.5 -531.5t-530.5 -219t-530 219q-147 147 -198.5 351t9.5 399q6 23 15 41q12 37 47.5 42t60.5 -21.5t10 -63.5q-4 -12 -6 -21q-55 -164 -14 -338t166 -299q182 -182 440 -182t440.5 182.5t182.5 440.5t-182.5 440t-440.5 182 t-440 -182q-55 -53 -103 -133q-43 59 -116 53q51 94 129 172q219 219 530 219t530.5 -219zM909 1597l-168 99q-47 29 -18 76q12 20 31.5 27t44.5 -5l168 -96q47 -29 18 -78q-29 -48 -76 -23z" />
<glyph unicode="&#xd3;" horiz-adv-x="1708" d="M799 1599q-47 -25 -76 23q-29 49 18 78l168 96q25 12 44.5 5t31.5 -27q29 -47 -18 -76zM1384.5 1284q-219.5 219 -530.5 219t-530 -219q-78 -76 -129 -172q74 6 116 -53q47 80 103 133q182 182 440 182t440 -182q182 -180 182.5 -439t-182.5 -442q-182 -180 -440 -180 t-440 180q-125 125 -166 299t14 338q2 8 6 21q14 37 -10.5 63.5t-60 21.5t-47.5 -42q-8 -18 -15 -41q-61 -195 -10 -398.5t199 -351.5q219 -219 530 -219t530.5 219t219.5 531.5t-219.5 531.5z" />
<glyph unicode="&#xd4;" horiz-adv-x="1708" d="M1384.5 1282q219.5 -219 219.5 -531.5t-219.5 -531.5t-530.5 -219t-530 219q-147 147 -198.5 351t9.5 399q6 23 15 41q12 37 47.5 42t60.5 -21.5t10 -63.5q-4 -12 -6 -21q-55 -164 -14 -338t166 -299q182 -182 440 -182t440.5 182.5t182.5 440.5t-182.5 440t-440.5 182 t-440 -182q-55 -53 -103 -133q-43 59 -116 53q51 94 129 172q219 219 530 219t530.5 -219zM930 1589l-74 74l-74 -74q-37 -41 -77 0q-16 16 -18.5 38t15.5 42l115 115q39 39 80 0l115 -115q39 -39 -2 -80q-39 -41 -80 0z" />
<glyph unicode="&#xd5;" horiz-adv-x="1708" d="M1384.5 1282q219.5 -219 219.5 -531.5t-219.5 -531.5t-530.5 -219t-530 219q-147 147 -198.5 351t9.5 399q6 23 15 41q12 37 47.5 42t60.5 -21.5t10 -63.5q-4 -12 -6 -21q-55 -164 -14 -338t166 -299q182 -182 440 -182t440.5 182.5t182.5 440.5t-182.5 440t-440.5 182 t-440 -182q-55 -53 -103 -133q-43 59 -116 53q51 94 129 172q219 219 530 219t530.5 -219zM741 1653q-20 -45 -69 -31q-41 14 -41 59q2 27 26 60q41 53 109 57t115 -43q6 -6 15 -19.5t13 -17.5q27 -27 49 4q2 2 5.5 11.5t7.5 13.5q25 37 65 22q43 -14 39 -57q0 -31 -26 -61 q-41 -53 -108 -57.5t-114 42.5q-6 6 -15 19.5t-13 17.5q-16 16 -39 6q-11 -6 -19 -26z" />
<glyph unicode="&#xd6;" horiz-adv-x="1708" d="M1384.5 1282q219.5 -219 219.5 -531.5t-219.5 -531.5t-530.5 -219t-530 219q-147 147 -198.5 351t9.5 399q6 23 15 41q12 37 47.5 42t60.5 -21.5t10 -63.5q-4 -12 -6 -21q-55 -164 -14 -338t166 -299q182 -182 440 -182t440.5 182.5t182.5 440.5t-182.5 440t-440.5 182 t-440 -182q-55 -53 -103 -133q-43 59 -116 53q51 94 129 172q219 219 530 219t530.5 -219zM768 1710q0 -35 -25.5 -61.5t-62.5 -26.5t-62.5 26.5t-25.5 61.5q0 37 25.5 63.5t62.5 26.5t62.5 -26.5t25.5 -63.5zM1159 1710q0 -35 -25.5 -61.5t-62.5 -26.5t-62.5 26.5 t-25.5 61.5q0 37 25.5 63.5t62.5 26.5t62.5 -26.5t25.5 -63.5z" />
<glyph unicode="&#xd7;" horiz-adv-x="765" d="M213 823l170 -170l170 170q23 20 47.5 18.5t42.5 -20.5q45 -47 2 -90l-170 -170l170 -170q43 -43 -2 -90q-18 -18 -43 -20t-47 18l-170 170l-170 -170q-23 -20 -47.5 -18t-42.5 20q-45 47 -2 90l170 170l-170 170q-43 43 2 90q18 18 42.5 20t47.5 -18z" />
<glyph unicode="&#xd9;" horiz-adv-x="1460" d="M354 1370h-16v-862q0 -158 108 -270q111 -111 277 -111q39 0 55.5 -32t0 -63.5t-55.5 -31.5q-219 0 -367 147q-150 150 -149 363v860h-17q-39 0 -54 32t0.5 64.5t53.5 32.5h164q39 0 54.5 -32.5t0 -64.5t-54.5 -32zM784 1595l-168 99q-47 29 -18 75q12 20 31.5 27.5 t44.5 -4.5l168 -96q47 -29 18 -78q-29 -48 -76 -23zM821 137q115 27 189 101q111 111 110 270v862h-16q-39 0 -54.5 32t0 64.5t54.5 32.5h162q39 0 55 -32.5t0 -64.5t-55 -32h-17v-860q0 -215 -147 -363q-109 -109 -268 -137q33 63 -11 125q0 2 -2 2z" />
<glyph unicode="&#xda;" horiz-adv-x="1492" d="M371 1370q39 0 54 32t0 64.5t-54 32.5h-164q-39 0 -54.5 -32.5t0 -64.5t54.5 -32h16v-860q0 -213 150 -363q147 -147 366 -147q39 0 55.5 31.5t0 63.5t-55.5 32q-166 0 -276 111q-109 113 -109 270v862h17zM690 1595q-47 -25 -76 23q-29 49 19 78l168 96q25 12 44 5 t32 -28q29 -47 -19 -75zM838 137l2 -2q43 -61 10 -125q160 29 268 137q147 147 148 363v860h16q39 0 55.5 32t0 64.5t-55.5 32.5h-162q-39 0 -54 -32.5t0 -64.5t54 -32h17v-862q0 -160 -111 -270q-73 -74 -188 -101z" />
<glyph unicode="&#xdb;" horiz-adv-x="1441" d="M346 1370h-16v-862q0 -158 108 -270q111 -111 277 -111q39 0 55 -32t0 -63.5t-55 -31.5q-219 0 -367 147q-150 150 -149 363v860h-17q-39 0 -54 32t0 64.5t54 32.5h164q39 0 54.5 -32.5t0 -64.5t-54.5 -32zM813 137q115 27 188 101q111 111 111 270v862h-16 q-39 0 -54.5 32t0 64.5t54.5 32.5h161q39 0 55.5 -32.5t0 -64.5t-55.5 -32h-16v-860q0 -215 -147 -363q-109 -109 -269 -137q33 63 -10 125q0 2 -2 2zM797 1589l-74 74l-74 -74q-37 -41 -78 0q-16 16 -18 38t16 42l115 115q41 39 80 0l115 -115q39 -39 -2 -80t-80 0z" />
<glyph unicode="&#xdc;" horiz-adv-x="1492" d="M371 1370h-17v-862q0 -158 109 -270q111 -111 276 -111q39 0 55.5 -32t0 -63.5t-55.5 -31.5q-219 0 -366 147q-150 150 -150 363v860h-16q-39 0 -54.5 32t0 64.5t54.5 32.5h164q39 0 54 -32.5t0 -64.5t-54 -32zM838 137q115 27 188 101q111 111 111 270v862h-17 q-39 0 -54 32t0 64.5t54 32.5h162q39 0 55.5 -32.5t0 -64.5t-55.5 -32h-16v-860q0 -215 -148 -363q-109 -109 -268 -137q33 63 -10 125q0 2 -2 2zM639 1710q0 -35 -25.5 -61.5t-62.5 -26.5t-62.5 26.5t-25.5 61.5q0 37 25.5 63.5t62.5 26.5t62.5 -26.5t25.5 -63.5z M1030 1710q0 -35 -25.5 -61.5t-62.5 -26.5t-62.5 26.5t-25.5 61.5q0 37 25.5 63.5t62.5 26.5t62.5 -26.5t25.5 -63.5z" />
<glyph unicode="&#xdd;" horiz-adv-x="1509" d="M334 1370q37 2 51 35t-2 63.5t-55 30.5h-162q-39 0 -55.5 -32.5t0 -64.5t55.5 -32h14l484 -752q12 12 20 17q41 27 86 21.5t78 -38.5l483 752h15q39 0 54 32t-0.5 64.5t-53.5 32.5h-162q-39 0 -55.5 -30.5t-2 -63.5t51.5 -35l-422 -655zM700 1595q-47 -25 -75 23 q-29 49 18 78l168 96q25 12 44 5t32 -28q29 -47 -19 -75zM838 0q39 0 54 31.5t0 64.5t-54 33h-19v406q0 39 -32.5 55t-64.5 -0.5t-32 -54.5v-406h-16q-39 0 -54.5 -33t0 -64.5t54.5 -31.5h164z" />
<glyph unicode="&#xe0;" d="M1151 0q-20 0 -34.5 14.5t-14.5 34.5v39l69 84q47 59 15.5 127t-105.5 74h-10q47 113 23.5 237.5t-113.5 214.5q-123 123 -296 123t-294 -123q-123 -121 -123 -294t123 -295q106 -106 258 -120t273 72q51 33 104 101q25 31 60.5 22.5t48 -38t-8.5 -64.5 q-74 -86 -139 -131q-158 -106 -353.5 -89t-334.5 156q-158 160 -158 386.5t158 386.5q160 158 386 157.5t386 -157.5q6 -6 16.5 -17.5t14.5 -17.5v141q0 20 14 35.5t35 15.5h109q39 0 54 -32.5t-0.5 -65.5t-53.5 -33h-29v-815h29q39 0 54 -33t-0.5 -64.5t-53.5 -31.5h-109z M784 1292l-166 97q-49 27 -20 75q29 51 76 23l168 -96q47 -27 18 -78q-29 -48 -76 -21z" />
<glyph unicode="&#xe1;" d="M1151 0q-20 0 -34.5 14.5t-14.5 34.5v39l69 84q47 59 15.5 127t-105.5 74h-10q47 113 23.5 237.5t-113.5 214.5q-123 123 -296 123t-294 -123q-123 -121 -123 -294t123 -295q106 -106 258 -120t273 72q51 33 104 101q25 31 60.5 22.5t48 -38t-8.5 -64.5 q-74 -86 -139 -131q-158 -106 -353.5 -89t-334.5 156q-158 160 -158 386.5t158 386.5q160 158 386 157.5t386 -157.5q6 -6 16.5 -17.5t14.5 -17.5v141q0 20 14 35.5t35 15.5h109q39 0 54 -32.5t-0.5 -65.5t-53.5 -33h-29v-815h29q39 0 54 -33t-0.5 -64.5t-53.5 -31.5h-109z M647 1292q-47 -29 -75.5 20.5t20.5 78.5l166 96q49 27 76 -23q29 -49 -19 -75z" />
<glyph unicode="&#xe2;" d="M1151 0q-20 0 -34.5 14.5t-14.5 34.5v39l69 84q47 59 15.5 127t-105.5 74h-10q47 113 23.5 237.5t-113.5 214.5q-123 123 -296 123t-294 -123q-123 -121 -123 -294t123 -295q106 -106 258 -120t273 72q51 33 104 101q25 31 60.5 22.5t48 -38t-8.5 -64.5 q-74 -86 -139 -131q-158 -106 -353.5 -89t-334.5 156q-158 160 -158 386.5t158 386.5q160 158 386 157.5t386 -157.5q6 -6 16.5 -17.5t14.5 -17.5v141q0 20 14 35.5t35 15.5h109q39 0 54 -32.5t-0.5 -65.5t-53.5 -33h-29v-815h29q39 0 54 -33t-0.5 -64.5t-53.5 -31.5h-109z M700 1360l-73 -74q-37 -41 -78 0q-16 16 -18.5 38t16.5 42l115 115q39 39 79 0l115 -115q39 -39 -2 -80q-39 -41 -80 0z" />
<glyph unicode="&#xe3;" d="M1151 0q-20 0 -34.5 14.5t-14.5 34.5v39l69 84q47 59 15.5 127t-105.5 74h-10q47 113 23.5 237.5t-113.5 214.5q-123 123 -296 123t-294 -123q-123 -121 -123 -294t123 -295q106 -106 258 -120t273 72q51 33 104 101q25 31 60.5 22.5t48 -38t-8.5 -64.5 q-74 -86 -139 -131q-158 -106 -353.5 -89t-334.5 156q-158 160 -158 386.5t158 386.5q160 158 386 157.5t386 -157.5q6 -6 16.5 -17.5t14.5 -17.5v141q0 20 14 35.5t35 15.5h109q39 0 54 -32.5t-0.5 -65.5t-53.5 -33h-29v-815h29q39 0 54 -33t-0.5 -64.5t-53.5 -31.5h-109z M594 1352q-25 -45 -70 -31t-41 59q0 20 27 62q39 51 107.5 56t113.5 -42q6 -6 15.5 -20.5t13.5 -18.5q29 -25 49 4l12 25q23 37 66 22q41 -10 41 -55q0 -25 -27 -63q-41 -53 -108.5 -57.5t-114.5 42.5q-4 4 -13.5 18.5t-15.5 20.5q-18 18 -39 4q-8 -3 -16 -26z" />
<glyph unicode="&#xe4;" d="M1151 0q-20 0 -34.5 14.5t-14.5 34.5v39l69 84q47 59 15.5 127t-105.5 74h-10q47 113 23.5 237.5t-113.5 214.5q-123 123 -296 123t-294 -123q-123 -121 -123 -294t123 -295q106 -106 258 -120t273 72q51 33 104 101q25 31 60.5 22.5t48 -38t-8.5 -64.5 q-74 -86 -139 -131q-158 -106 -353.5 -89t-334.5 156q-158 160 -158 386.5t158 386.5q160 158 386 157.5t386 -157.5q6 -6 16.5 -17.5t14.5 -17.5v141q0 20 14 35.5t35 15.5h109q39 0 54 -32.5t-0.5 -65.5t-53.5 -33h-29v-815h29q39 0 54 -33t-0.5 -64.5t-53.5 -31.5h-109z M586 1290q0 -35 -25.5 -61.5t-62.5 -26.5t-62.5 26.5t-25.5 61.5q0 37 25.5 63.5t62.5 26.5t62.5 -26.5t25.5 -63.5zM977 1290q0 -35 -25.5 -61.5t-62.5 -26.5t-62.5 26.5t-25.5 61.5q0 37 25.5 63.5t62.5 26.5t62.5 -26.5t25.5 -63.5z" />
<glyph unicode="&#xe5;" d="M1151 0q-20 0 -34.5 14.5t-14.5 34.5v39l69 84q47 59 15.5 127t-105.5 74h-10q47 113 23.5 237.5t-113.5 214.5q-123 123 -296 123t-294 -123q-123 -121 -123 -294t123 -295q106 -106 258 -120t273 72q51 33 104 101q25 31 60.5 22.5t48 -38t-8.5 -64.5 q-74 -86 -139 -131q-158 -106 -353.5 -89t-334.5 156q-158 160 -158 386.5t158 386.5q160 158 386 157.5t386 -157.5q6 -6 16.5 -17.5t14.5 -17.5v141q0 20 14 35.5t35 15.5h109q39 0 54 -32.5t-0.5 -65.5t-53.5 -33h-29v-815h29q39 0 54 -33t-0.5 -64.5t-53.5 -31.5h-109z M827 1397q29 -86 -34 -150q-43 -43 -103.5 -43t-103.5 43q-57 57 -39 137q12 49 53 81t92 32q47 -2 84 -28.5t51 -71.5zM655 1317q14 -14 34 -14t34 14q23 23 10.5 52.5t-43.5 29.5t-45.5 -29.5t10.5 -52.5z" />
<glyph unicode="&#xe6;" horiz-adv-x="3180" />
<glyph unicode="&#xe8;" horiz-adv-x="1294" d="M854 172l-18 31q-31 53 24 86t88 -21l45 -75q14 -20 11 -46t-23 -43q-158 -127 -369 -115.5t-356 156.5q-160 160 -160 386.5t160 386.5q158 158 384 157.5t386 -157.5q154 -154 160 -373q0 -37 -17 -56q-16 -23 -47 -22h-856q-39 0 -54 32.5t0 64.5t54 32h787 q-23 135 -117 229q-123 123 -296 123t-294 -123q-74 -70 -104 -174q-63 -12 -88 -74.5t12 -117.5q31 -43 76 -49q29 -94 104 -174q100 -100 244.5 -118t263.5 54zM692 1292l-166 97q-49 27 -20 75q29 51 76 23l168 -96q47 -27 18 -78q-29 -48 -76 -21z" />
<glyph unicode="&#xe9;" horiz-adv-x="1294" d="M854 172q-119 -72 -263.5 -54.5t-244.5 118.5q-76 80 -104 174q-45 6 -76 49q-37 55 -12.5 117.5t88.5 74.5q31 104 104 174q121 123 294 123t296 -123q94 -94 117 -229h-787q-39 0 -54 -32t0 -64.5t54 -32.5h856q31 0 47 22q16 18 17 56q-6 219 -160 373 q-160 158 -386 157.5t-384 -157.5q-160 -160 -160 -386.5t160 -386.5q145 -145 356 -156.5t369 115.5q20 16 23.5 42t-11.5 47l-45 75q-33 53 -88 20.5t-24 -85.5zM588 1292q-47 -29 -76 20.5t20 78.5l166 96q49 27 76 -23q29 -49 -18 -75z" />
<glyph unicode="&#xea;" horiz-adv-x="1294" d="M868 172l-18 31q-31 53 24.5 86t88.5 -21l45 -75q14 -20 11 -46t-24 -43q-158 -127 -368.5 -115.5t-356.5 156.5q-160 160 -159.5 386.5t159.5 386.5q158 158 384.5 157.5t385.5 -157.5q154 -154 160 -373q0 -37 -16 -56q-16 -23 -47 -22h-856q-39 0 -54.5 32.5t0 64.5 t54.5 32h786q-23 135 -117 229q-123 123 -296 123t-294 -123q-74 -70 -104 -174q-63 -12 -88 -74.5t12 -117.5q31 -43 76 -49q29 -94 104 -174q100 -100 244.5 -118t263.5 54zM657 1360l-73 -74q-37 -41 -78 0q-16 16 -18.5 38t16.5 42l114 115q41 39 80 0l115 -115 q39 -39 -2 -80t-80 0z" />
<glyph unicode="&#xeb;" horiz-adv-x="1294" d="M868 172l-18 31q-31 53 24.5 86t88.5 -21l45 -75q14 -20 11 -46t-24 -43q-158 -127 -368.5 -115.5t-356.5 156.5q-160 160 -159.5 386.5t159.5 386.5q158 158 384.5 157.5t385.5 -157.5q154 -154 160 -373q0 -37 -16 -56q-16 -23 -47 -22h-856q-39 0 -54.5 32.5t0 64.5 t54.5 32h786q-23 135 -117 229q-123 123 -296 123t-294 -123q-74 -70 -104 -174q-63 -12 -88 -74.5t12 -117.5q31 -43 76 -49q29 -94 104 -174q100 -100 244.5 -118t263.5 54zM553 1290q0 -35 -25.5 -61.5t-62.5 -26.5t-62.5 26.5t-25.5 61.5q0 37 25.5 63.5t62.5 26.5 t62.5 -26.5t25.5 -63.5zM944 1290q0 -35 -25.5 -61.5t-62.5 -26.5t-62.5 26.5t-25.5 61.5q0 37 25.5 63.5t62.5 26.5t62.5 -26.5t25.5 -63.5z" />
<glyph unicode="&#xec;" horiz-adv-x="499" d="M295 1292l-166 97q-49 27 -20 75q29 51 75 23l168 -96q47 -27 19 -78q-29 -48 -76 -21zM174 946q-39 0 -54.5 33t0 64.5t54.5 31.5h84q27 0 45.5 -17.5t18.5 -45.5v-883h18q39 0 54.5 -33t0 -64.5t-54.5 -31.5h-164q-39 0 -54.5 31.5t0 64.5t54.5 33h17v817h-19z" />
<glyph unicode="&#xed;" horiz-adv-x="499" d="M176 1292q-47 -29 -75.5 20.5t20.5 78.5l166 96q49 27 75 -23q29 -49 -18 -75zM180 946q-39 0 -54 33t0 64.5t54 31.5h84q27 0 45.5 -17.5t18.5 -45.5v-883h18q39 0 54.5 -33t0 -64.5t-54.5 -31.5h-164q-39 0 -54 31.5t0 64.5t54 33h17v817h-19z" />
<glyph unicode="&#xee;" horiz-adv-x="499" d="M250 1360l-74 -74q-37 -41 -78 0q-16 16 -18 38t16 42l115 115q39 39 80 0l115 -115q39 -39 -3 -80q-39 -41 -79 0zM174 946q-39 0 -54.5 33t0 64.5t54.5 31.5h84q27 0 45.5 -17.5t18.5 -45.5v-883h18q39 0 54.5 -33t0 -64.5t-54.5 -31.5h-164q-39 0 -54.5 31.5t0 64.5 t54.5 33h17v817h-19z" />
<glyph unicode="&#xef;" horiz-adv-x="499" d="M166 1290q0 -35 -25.5 -61.5t-62.5 -26.5t-62.5 26.5t-25.5 61.5q0 37 25.5 63.5t62.5 26.5t62.5 -26.5t25.5 -63.5zM510 1290q0 -35 -25.5 -61.5t-62.5 -26.5t-62.5 26.5t-25.5 61.5q0 37 25.5 63.5t62.5 26.5t62.5 -26.5t25.5 -63.5zM188 946q-39 0 -54 33t0.5 64.5 t53.5 31.5h84q27 0 45.5 -17.5t18.5 -45.5v-883h18q39 0 54.5 -33t0 -64.5t-54.5 -31.5h-164q-39 0 -54 31.5t0.5 64.5t53.5 33h17v817h-19z" />
<glyph unicode="&#xf1;" horiz-adv-x="1351" d="M190 944h-26q-39 0 -54.5 33t0 65.5t54.5 32.5h106q20 0 36 -15.5t16 -35.5v-31q-14 -12 -39 -37q-31 -31 -45 -57q-33 -59 7 -115.5t103 -58.5q-27 -70 -26 -174v-422h16q39 0 54.5 -33t0 -64.5t-54.5 -31.5h-164q-39 0 -54.5 31.5t0 64.5t54.5 33h16v815zM586 1065 q119 23 235.5 -11t206.5 -122q141 -143 141 -387v-416h19q39 0 54 -33t0 -64.5t-54 -31.5h-164q-39 0 -54.5 31.5t0 64.5t54.5 33h16v416q0 193 -104 295q-137 137 -324 100q-117 -20 -219 -137q-37 -41 -84 -7.5t-22 78.5q16 23 37 44q117 120 262 147zM582 1352 q-25 -45 -70 -31t-41 59q0 20 27 62q39 51 107.5 56t113.5 -42q6 -6 15 -20.5t14 -18.5q29 -25 49 4l12 25q23 37 65 22q41 -10 41 -55q0 -25 -26 -63q-41 -53 -108.5 -57.5t-114.5 42.5q-4 4 -13.5 18.5t-15.5 20.5q-18 18 -39 4q-8 -3 -16 -26z" />
<glyph unicode="&#xf2;" horiz-adv-x="1366" d="M748 1292l-166 97q-49 27 -21 75q29 51 76 23l168 -96q47 -27 18 -78q-28 -48 -75 -21zM1069 922q158 -154 158 -375q0 -39 -32 -54.5t-63.5 0t-31.5 54.5q0 164 -121 284.5t-295 120.5t-295 -120.5t-121 -295t121 -295t295 -120.5t295 121q84 84 111 204q63 -41 129 -6 q-29 -168 -150 -288q-158 -158 -385 -158t-385 157.5t-158 385t158 385.5q158 160 385 160t385 -160z" />
<glyph unicode="&#xf3;" horiz-adv-x="1366" d="M655 1292q-47 -29 -75.5 20.5t20.5 78.5l166 96q49 27 76 -23q29 -49 -19 -75zM1069 922q-158 160 -385 159.5t-385 -159.5q-158 -158 -158 -385.5t158 -385t385 -157.5t385 158q121 121 150 288q-66 -35 -129 6q-27 -121 -111 -204q-121 -121 -295 -121t-295 120.5 t-121 295t121 295t295 120.5t295 -120.5t121 -284.5q0 -39 31.5 -54.5t63.5 0t32 54.5q0 221 -158 375z" />
<glyph unicode="&#xf4;" horiz-adv-x="1366" d="M1069 922q158 -154 158 -375q0 -39 -32 -54.5t-63.5 0t-31.5 54.5q0 164 -121 284.5t-295 120.5t-295 -120.5t-121 -295t121 -295t295 -120.5t295 121q84 84 111 204q63 -41 129 -6q-29 -168 -150 -288q-158 -158 -385 -158t-385 157.5t-158 385t158 385.5 q158 160 385 160t385 -160zM674 1360l-74 -74q-37 -41 -78 0q-16 16 -18 38t16 42l115 115q41 39 80 0l114 -115q39 -39 -2 -80t-79 0z" />
<glyph unicode="&#xf5;" horiz-adv-x="1366" d="M1069 922q158 -154 158 -375q0 -39 -32 -54.5t-63.5 0t-31.5 54.5q0 164 -121 284.5t-295 120.5t-295 -120.5t-121 -295t121 -295t295 -120.5t295 121q84 84 111 204q63 -41 129 -6q-29 -168 -150 -288q-158 -158 -385 -158t-385 157.5t-158 385t158 385.5 q158 160 385 160t385 -160zM561 1352q-25 -45 -70 -31t-40 59q0 20 26 62q39 51 107.5 56t113.5 -42q6 -6 15.5 -20.5t13.5 -18.5q29 -25 49 4l12 25q23 37 66 22q41 -10 41 -55q0 -25 -27 -63q-41 -53 -108.5 -57.5t-114.5 42.5q-4 4 -13 18.5t-16 20.5q-18 18 -38 4 q-9 -3 -17 -26z" />
<glyph unicode="&#xf6;" horiz-adv-x="1366" d="M1069 922q158 -154 158 -375q0 -39 -32 -54.5t-63.5 0t-31.5 54.5q0 164 -121 284.5t-295 120.5t-295 -120.5t-121 -295t121 -295t295 -120.5t295 121q84 84 111 204q63 -41 129 -6q-29 -168 -150 -288q-158 -158 -385 -158t-385 157.5t-158 385t158 385.5 q158 160 385 160t385 -160zM578 1290q0 -35 -26 -61.5t-62.5 -26.5t-62.5 26.5t-26 61.5q0 37 26 63.5t62.5 26.5t62.5 -26.5t26 -63.5zM969 1290q0 -35 -25.5 -61.5t-62.5 -26.5t-62.5 26.5t-25.5 61.5q0 37 25.5 63.5t62.5 26.5t62.5 -26.5t25.5 -63.5z" />
<glyph unicode="&#xf9;" horiz-adv-x="1331" d="M1151 129h29q39 0 54 -33t0 -64.5t-54 -31.5h-109q-20 0 -34.5 14.5t-14.5 34.5v33q6 6 18.5 17.5t18.5 17.5q37 43 45 57q33 61 -6 117.5t-103 56.5q27 70 27 174v422h-16q-39 0 -55.5 33t0 65.5t55.5 32.5h161q39 0 55.5 -32.5t0 -65.5t-55.5 -33h-16v-815zM756 10 q-117 -23 -235 11t-206 122q-143 143 -143 387v414h-16q-39 0 -54.5 33t0 65.5t54.5 32.5h163q39 0 54.5 -32.5t0 -65.5t-54.5 -33h-18v-414q0 -193 105 -297q135 -135 325 -98q119 23 217 135q37 41 84 8.5t23 -77.5q-8 -16 -37 -45q-110 -117 -262 -146zM721 1292l-166 97 q-49 27 -20 75q29 51 75 23l168 -96q47 -27 19 -78q-29 -48 -76 -21z" />
<glyph unicode="&#xfa;" horiz-adv-x="1331" d="M1153 129v815h16q39 0 55.5 33t0 65.5t-55.5 32.5h-161q-39 0 -55.5 -32.5t0 -65.5t55.5 -33h16v-422q0 -104 -27 -174q63 0 102.5 -56t6.5 -118q-8 -14 -45 -57q-6 -6 -18.5 -17.5t-18.5 -17.5v-33q0 -20 14.5 -34.5t34.5 -14.5h109q39 0 54 31.5t0 64.5t-54 33h-29z M758 10q152 29 262 146q29 29 37 45q25 45 -22.5 77.5t-84.5 -8.5q-98 -113 -217 -135q-190 -37 -325 98q-104 104 -105 297v414h19q39 0 54 33t-0.5 65.5t-53.5 32.5h-164q-39 0 -54.5 -32.5t0 -65.5t54.5 -33h16v-414q0 -244 143 -387q88 -88 206 -122t235 -11zM606 1292 q-47 -29 -75.5 20.5t20.5 78.5l166 96q49 27 76 -23q29 -49 -19 -75z" />
<glyph unicode="&#xfb;" horiz-adv-x="1331" d="M1153 129h29q39 0 54 -33t0 -64.5t-54 -31.5h-109q-20 0 -34.5 14.5t-14.5 34.5v33q6 6 18.5 17.5t18.5 17.5q37 43 45 57q33 61 -6 117.5t-103 56.5q27 70 27 174v422h-16q-39 0 -55.5 33t0 65.5t55.5 32.5h161q39 0 55.5 -32.5t0 -65.5t-55.5 -33h-16v-815zM758 10 q-117 -23 -234.5 11t-206.5 122q-143 143 -143 387v414h-16q-39 0 -54.5 33t0 65.5t54.5 32.5h164q39 0 54 -32.5t-0.5 -65.5t-53.5 -33h-19v-414q0 -193 105 -297q135 -135 325 -98q119 23 217 135q37 41 84 8.5t23 -77.5q-8 -16 -37 -45q-110 -117 -262 -146zM668 1360 l-74 -74q-37 -41 -78 0q-16 16 -18 38t16 42l115 115q39 39 80 0l114 -115q39 -39 -2 -80q-39 -41 -80 0z" />
<glyph unicode="&#xfc;" horiz-adv-x="1331" d="M1153 129h29q39 0 54 -33t0 -64.5t-54 -31.5h-109q-20 0 -34.5 14.5t-14.5 34.5v33q6 6 18.5 17.5t18.5 17.5q37 43 45 57q33 61 -6 117.5t-103 56.5q27 70 27 174v422h-16q-39 0 -55.5 33t0 65.5t55.5 32.5h161q39 0 55.5 -32.5t0 -65.5t-55.5 -33h-16v-815zM758 10 q-117 -23 -234.5 11t-206.5 122q-143 143 -143 387v414h-16q-39 0 -54.5 33t0 65.5t54.5 32.5h164q39 0 54 -32.5t-0.5 -65.5t-53.5 -33h-19v-414q0 -193 105 -297q135 -135 325 -98q119 23 217 135q37 41 84 8.5t23 -77.5q-8 -16 -37 -45q-110 -117 -262 -146zM555 1290 q0 -35 -25.5 -61.5t-62.5 -26.5t-62.5 26.5t-25.5 61.5q0 37 25.5 63.5t62.5 26.5t62.5 -26.5t25.5 -63.5zM946 1290q0 -35 -25.5 -61.5t-62.5 -26.5t-62.5 26.5t-25.5 61.5q0 37 25.5 63.5t62.5 26.5t62.5 -26.5t25.5 -63.5z" />
<glyph unicode="&#xfd;" horiz-adv-x="1296" d="M274 944l373 -721q18 -35 -3 -64.5t-54 -28.5t-55 34l-400 780h-10q-39 0 -55.5 33t0 65.5t55.5 32.5h162q39 0 55 -32.5t0 -65.5t-55 -33h-13zM569 68q88 -10 129 69q31 53 -2 113l-16 35l338 659h-10q-39 0 -55.5 33t0 65.5t55.5 32.5h161q39 0 55.5 -32.5t0 -65.5 t-55.5 -33h-12l-717 -1405q-16 -37 -61 -33h-60q-39 0 -54 33t0.5 66t53.5 33h29zM594 1292q-47 -29 -76 20.5t21 78.5l166 96q49 27 75 -23q29 -49 -18 -75z" />
<glyph unicode="&#xff;" horiz-adv-x="1296" d="M274 944l373 -721q18 -35 -3 -64.5t-54 -28.5t-55 34l-400 780h-10q-39 0 -55.5 33t0 65.5t55.5 32.5h162q39 0 55 -32.5t0 -65.5t-55 -33h-13zM569 68q88 -10 129 69q31 53 -2 113l-16 35l338 659h-10q-39 0 -55.5 33t0 65.5t55.5 32.5h161q39 0 55.5 -32.5t0 -65.5 t-55.5 -33h-12l-717 -1405q-16 -37 -61 -33h-60q-39 0 -54 33t0.5 66t53.5 33h29zM539 1290q0 -35 -26 -61.5t-62.5 -26.5t-62.5 26.5t-26 61.5q0 37 26 63.5t62.5 26.5t62.5 -26.5t26 -63.5zM930 1290q0 -35 -25.5 -61.5t-62.5 -26.5t-62.5 26.5t-25.5 61.5q0 37 25.5 63.5 t62.5 26.5t62.5 -26.5t25.5 -63.5z" />
<glyph unicode="&#x152;" horiz-adv-x="2488" d="M1384 1278q53 -53 93 -111v203h-27q-39 0 -54.5 32t0 64.5t54.5 32.5h872q31 0 47.5 -20.5t14.5 -46.5v-91q0 -39 -33 -54t-64.5 0.5t-31.5 53.5v29h-647v-504q-47 -16 -68 -63q-23 -45 -3.5 -98.5t71.5 -71.5v-504h647v29q0 39 31.5 54t64.5 0t33 -54v-92 q0 -27 -16.5 -46.5t-45.5 -19.5h-872q-39 0 -54.5 31.5t0 64.5t54.5 33h27v201q-39 -59 -93 -113q-219 -219 -530 -219t-530 219q-147 147 -197.5 351t10.5 399q4 14 13 39q12 37 47.5 43t60.5 -21t12 -63q-4 -12 -8 -21q-55 -164 -14 -338t166 -299q182 -180 441 -180 t439 180q182 182 182.5 441.5t-182.5 439.5q-180 182 -439 182t-441 -182q-59 -59 -103 -133q-43 59 -114 53q45 88 127 170q219 219 530 219t530 -219zM2148 684h-497q-39 0 -55.5 33t0 65.5t55.5 32.5h497q39 0 55.5 -32.5t0 -65.5t-55.5 -33z" />
<glyph unicode="&#x153;" horiz-adv-x="3090" />
<glyph unicode="&#x178;" horiz-adv-x="1509" d="M334 1370l422 -655l422 655q-37 2 -51.5 35t2 63.5t55.5 30.5h162q39 0 54 -32.5t-0.5 -64.5t-53.5 -32h-15l-483 -752q-33 33 -78 38.5t-86 -21.5q-8 -4 -20 -17l-484 752h-14q-39 0 -55.5 32t0 64.5t55.5 32.5h162q39 0 55 -30.5t2 -63.5t-51 -35zM838 0h-164 q-39 0 -54.5 31.5t0 64.5t54.5 33h16v406q0 39 32 55t64.5 -0.5t32.5 -54.5v-406h19q39 0 54 -33t0 -64.5t-54 -31.5zM645 1710q0 -35 -25.5 -61.5t-62.5 -26.5t-62.5 26.5t-25.5 61.5q0 37 25.5 63.5t62.5 26.5t62.5 -26.5t25.5 -63.5zM1036 1710q0 -35 -25.5 -61.5 t-62.5 -26.5t-62.5 26.5t-25.5 61.5q0 37 25.5 63.5t62.5 26.5t62.5 -26.5t25.5 -63.5z" />
<glyph unicode="&#x2c6;" horiz-adv-x="548" d="M274 1360l-73 -74q-37 -41 -78 0q-16 16 -18.5 38t16.5 42l115 115q39 39 79 0l115 -115q39 -39 -2 -80q-39 -41 -80 0z" />
<glyph unicode="&#x2dc;" horiz-adv-x="651" d="M215 1352q-25 -45 -70 -31t-41 59q0 20 27 62q39 51 107.5 56t113.5 -42q6 -6 15.5 -20.5t13.5 -18.5q29 -25 49 4l12 25q23 37 66 22q41 -10 41 -55q0 -25 -27 -63q-41 -53 -108.5 -57.5t-114.5 42.5q-4 4 -13.5 18.5t-15.5 20.5q-18 18 -39 4q-8 -3 -16 -26z" />
<glyph unicode="&#x2000;" horiz-adv-x="915" />
<glyph unicode="&#x2001;" horiz-adv-x="1832" />
<glyph unicode="&#x2002;" horiz-adv-x="915" />
<glyph unicode="&#x2003;" horiz-adv-x="1832" />
<glyph unicode="&#x2004;" horiz-adv-x="610" />
<glyph unicode="&#x2005;" horiz-adv-x="456" />
<glyph unicode="&#x2006;" horiz-adv-x="305" />
<glyph unicode="&#x2007;" horiz-adv-x="305" />
<glyph unicode="&#x2008;" horiz-adv-x="227" />
<glyph unicode="&#x2009;" horiz-adv-x="366" />
<glyph unicode="&#x200a;" horiz-adv-x="100" />
<glyph unicode="&#x2010;" horiz-adv-x="937" d="M772 666h-608q-29 0 -45.5 18t-16.5 45t16.5 46.5t45.5 19.5h608q31 0 47.5 -19.5t16.5 -46.5t-16.5 -45t-47.5 -18z" />
<glyph unicode="&#x2011;" horiz-adv-x="937" d="M772 666h-608q-29 0 -45.5 18t-16.5 45t16.5 46.5t45.5 19.5h608q31 0 47.5 -19.5t16.5 -46.5t-16.5 -45t-47.5 -18z" />
<glyph unicode="&#x2012;" horiz-adv-x="937" d="M772 666h-608q-29 0 -45.5 18t-16.5 45t16.5 46.5t45.5 19.5h608q31 0 47.5 -19.5t16.5 -46.5t-16.5 -45t-47.5 -18z" />
<glyph unicode="&#x2013;" horiz-adv-x="1024" d="M102 666v129h820v-129h-820z" />
<glyph unicode="&#x2014;" horiz-adv-x="2048" d="M102 666v129h1844v-129h-1844z" />
<glyph unicode="&#x2018;" horiz-adv-x="391" d="M106 1257l54 195q14 59 78 43q25 -6 40 -27.5t7 -48.5l-54 -194q-8 -27 -30.5 -38t-47 -5t-40 27t-7.5 48z" />
<glyph unicode="&#x2019;" horiz-adv-x="391" d="M106 1257l54 195q14 59 78 43q25 -6 40 -27.5t7 -48.5l-54 -194q-8 -27 -30.5 -38t-47 -5t-40 27t-7.5 48z" />
<glyph unicode="&#x201c;" horiz-adv-x="585" d="M479 1260q8 -27 -7 -48.5t-39.5 -27.5t-47.5 5t-31 38l-53 194q-8 27 7.5 48.5t39.5 27.5q63 16 78 -43zM285 1260q8 -27 -7.5 -48.5t-40 -27.5t-47 5t-30.5 38l-54 194q-8 27 7.5 48.5t40.5 27.5q63 16 77 -43z" />
<glyph unicode="&#x201d;" horiz-adv-x="585" d="M106 1260l54 194q14 59 78 43q25 -6 40 -27.5t7 -48.5l-54 -194q-8 -27 -30.5 -38t-47 -5t-40 27.5t-7.5 48.5zM301 1260l53 194q14 59 78 43q25 -6 40 -27.5t7 -48.5l-53 -194q-8 -27 -30.5 -38t-47 -5t-40 27.5t-7.5 48.5z" />
<glyph unicode="&#x201e;" horiz-adv-x="1705" d="M1438 -201v201q0 31 19.5 47t43.5 16q27 0 46.5 -16t19.5 -47v-201q0 -29 -19.5 -45t-46.5 -16q-25 0 -44 16t-19 45zM1255 -201v201q0 31 19.5 47t46.5 16q25 0 44 -16t19 -47v-201q0 -29 -19 -45t-44 -16q-27 0 -46.5 16t-19.5 45z" />
<glyph unicode="&#x2026;" horiz-adv-x="751" d="M172 141q29 0 50.5 -21.5t21.5 -50t-21.5 -49t-50.5 -20.5t-49.5 20.5t-20.5 49t20.5 50t49.5 21.5zM579.5 141q28.5 0 49 -21.5t20.5 -50t-20.5 -49t-49 -20.5t-49 20.5t-20.5 49t20.5 50t49 21.5zM377 141q29 0 49 -21.5t20 -50t-20 -49t-49 -20.5t-49.5 20.5t-20.5 49 t20.5 50t49.5 21.5z" />
<glyph unicode="&#x202f;" horiz-adv-x="366" />
<glyph unicode="&#x2039;" horiz-adv-x="831" d="M696 961l-399 -230l399 -229q51 -31 23 -88q-33 -55 -88 -25l-496 287q-33 18 -33 55t37 57l492 285q55 31 88 -24q28 -55 -23 -88z" />
<glyph unicode="&#x203a;" horiz-adv-x="831" d="M135 961q-53 33 -22 88q33 55 86 24l493 -285q37 -23 35 -57q4 -33 -31 -55l-497 -287q-53 -31 -86 25q-33 57 22 88l397 229z" />
<glyph unicode="&#x205f;" horiz-adv-x="456" />
<glyph unicode="&#x20ac;" horiz-adv-x="1179" d="M948 158q0 39 32 54t64.5 0t32.5 -54v-92q0 -29 -18.5 -47.5t-44.5 -18.5h-355q-176 0 -307 127q-129 131 -129 362v68h-59q-29 0 -45.5 19.5t-16.5 46t16.5 46t45.5 19.5h20q29 -41 79 -50t95 19q20 14 29 31h444q29 0 46.5 -19.5t17.5 -46t-17.5 -46t-46.5 -19.5h-481 v-68q0 -178 94 -272q88 -88 215 -88h289v29zM1014 1499q27 0 45 -18.5t18 -46.5v-93q0 -39 -32.5 -54t-64.5 0.5t-32 53.5v27h-289q-129 0 -215 -86q-94 -94 -94 -272v-68h481q29 0 46.5 -19.5t17.5 -46t-17.5 -46t-46.5 -19.5h-481v-53q0 -39 -31.5 -54.5t-63.5 0t-32 54.5 v53h-59q-29 0 -45.5 19.5t-16.5 46t16.5 46t45.5 19.5h59v68q0 231 129 362q131 127 307 127h355z" />
<glyph unicode="&#x2122;" horiz-adv-x="1150" d="M365 907q25 0 24.5 25.5t-24.5 25.5h-7v465q0 25 -25.5 25t-25.5 -25v-465h-6q-25 0 -25 -25.5t25 -25.5h64zM948 1450q-16 8 -12 27.5t25 19.5h63q25 0 25 -25.5t-25 -25.5h-6v-488h6q25 0 25 -25.5t-25 -25.5h-63q-25 0 -25 25.5t25 25.5h6v426l-172 -278 q-8 -12 -21.5 -12t-21.5 12l-170 278v-426h6q25 0 24.5 -25.5t-24.5 -25.5h-66q-23 0 -22.5 25.5t22.5 25.5h8v488h-155q-12 27 -43 27t-43 -27h-135v-10q0 -25 -26 -25t-26 25v37q0 25 25 24h461q18 0 22 -19.5t-10 -27.5l174 -283z" />
<glyph unicode="&#xe000;" horiz-adv-x="1075" d="M0 1075h1075v-1075h-1075v1075z" />
<glyph unicode="&#xfb01;" horiz-adv-x="1259" d="M926 946q-39 0 -54 33q-8 16 -8 32.5t8 31.5q15 32 54 32h84q27 0 45 -17.5t18 -45.5v-883h19q39 0 54 -33q8 -16 8 -32t-8 -32q-15 -32 -54 -32h-164q-39 0 -54 32q-8 16 -8 32t8 32q15 33 54 33h16v817h-18zM1004 1501q39 0 67.5 -28.5t28.5 -67.5t-28.5 -68.5 t-67.5 -29.5q-41 0 -69 28.5t-28 69.5q0 39 28 67.5t69 28.5zM596 1501q39 0 54 -33q8 -16 8 -32.5t-8 -32.5q-15 -33 -54 -33q-111 0 -195 -84q-68 -61 -84 -158q-57 -20 -75 -78q-7 -21 -7 -42q0 -36 21 -70q23 -33 55 -45v-764h17q39 0 55 -33q8 -16 8 -32t-8 -32 q-16 -32 -55 -32h-162q-39 0 -55 32q-8 16 -8.5 32t8.5 32q16 33 55 33h16v922q0 205 131 327q127 123 283 123zM440 1075q31 0 47.5 -19.5t16.5 -46t-16.5 -46t-47.5 -19.5h-121q-39 0 -54 33q-8 16 -7.5 32.5t7.5 32.5q15 33 54 33h121z" />
<glyph unicode="&#xfb02;" horiz-adv-x="1519" d="M942 1370h-16q-39 0 -55 33q-8 16 -8.5 32.5t8.5 32.5q16 33 55 33h162q39 0 55 -33q8 -16 8 -32.5t-8 -32.5q-16 -33 -55 -33h-17v-917q0 -152 90 -240q88 -84 195 -84q39 0 54 -33q8 -16 8 -32t-8 -32q-15 -32 -54 -32q-154 0 -283 121q-131 125 -131 330v919z M596 1501q39 0 54 -33q8 -16 8 -32.5t-8 -32.5q-15 -33 -54 -33q-111 0 -195 -84q-68 -61 -84 -158q-57 -20 -75 -78q-7 -21 -7 -42q0 -36 21 -70q23 -33 55 -45v-764h17q39 0 55 -33q8 -16 8 -32t-8 -32q-16 -32 -55 -32h-162q-39 0 -55 32q-8 16 -8.5 32t8.5 32 q16 33 55 33h16v922q0 205 131 327q127 123 283 123zM440 1075q31 0 47.5 -19.5t16.5 -46t-16.5 -46t-47.5 -19.5h-121q-39 0 -54 33q-8 16 -7.5 32.5t7.5 32.5q15 33 54 33h121z" />
<glyph unicode="&#xfb03;" horiz-adv-x="2019" d="M1686 946q-39 0 -54 33q-8 16 -8 32.5t8 31.5q15 32 54 32h84q27 0 45 -17.5t18 -45.5v-883h19q39 0 54 -33q8 -16 8 -32t-8 -32q-15 -32 -54 -32h-164q-39 0 -54 32q-8 16 -8 32t8 32q15 33 54 33h16v817h-18zM1764 1501q39 0 67.5 -28.5t28.5 -67.5t-28.5 -68.5 t-67.5 -29.5q-41 0 -69 28.5t-28 69.5q0 39 28 67.5t69 28.5zM1356 1501q39 0 54 -33q8 -16 8 -32.5t-8 -32.5q-15 -33 -54 -33q-111 0 -195 -84q-68 -61 -84 -158q-57 -20 -75 -78q-7 -21 -7 -42q0 -36 21 -70q23 -33 55 -45v-764h17q39 0 55 -33q8 -16 8 -32t-8 -32 q-16 -32 -55 -32h-162q-39 0 -55 32q-8 16 -8.5 32t8.5 32q16 33 55 33h16v922q0 205 131 327q127 123 283 123zM1200 1075q31 0 47.5 -19.5t16.5 -46t-16.5 -46t-47.5 -19.5h-121q-39 0 -54 33q-8 16 -7.5 32.5t7.5 32.5q15 33 54 33h121zM596 1501q39 0 54 -33 q8 -16 8 -32.5t-8 -32.5q-15 -33 -54 -33q-111 0 -195 -84q-68 -61 -84 -158q-57 -20 -75 -78q-7 -21 -7 -42q0 -36 21 -70q23 -33 55 -45v-764h17q39 0 55 -33q8 -16 8 -32t-8 -32q-16 -32 -55 -32h-162q-39 0 -55 32q-8 16 -8.5 32t8.5 32q16 33 55 33h16v922 q0 205 131 327q127 123 283 123zM440 1075q31 0 47.5 -19.5t16.5 -46t-16.5 -46t-47.5 -19.5h-121q-39 0 -54 33q-8 16 -7.5 32.5t7.5 32.5q15 33 54 33h121z" />
<glyph unicode="&#xfb04;" horiz-adv-x="2279" d="M1702 1370h-16q-39 0 -55 33q-8 16 -8.5 32.5t8.5 32.5q16 33 55 33h162q39 0 55 -33q8 -16 8 -32.5t-8 -32.5q-16 -33 -55 -33h-17v-917q0 -152 90 -240q88 -84 195 -84q39 0 54 -33q8 -16 8 -32t-8 -32q-15 -32 -54 -32q-154 0 -283 121q-131 125 -131 330v919z M1356 1501q39 0 54 -33q8 -16 8 -32.5t-8 -32.5q-15 -33 -54 -33q-111 0 -195 -84q-68 -61 -84 -158q-57 -20 -75 -78q-7 -21 -7 -42q0 -36 21 -70q23 -33 55 -45v-764h17q39 0 55 -33q8 -16 8 -32t-8 -32q-16 -32 -55 -32h-162q-39 0 -55 32q-8 16 -8.5 32t8.5 32 q16 33 55 33h16v922q0 205 131 327q127 123 283 123zM1200 1075q31 0 47.5 -19.5t16.5 -46t-16.5 -46t-47.5 -19.5h-121q-39 0 -54 33q-8 16 -7.5 32.5t7.5 32.5q15 33 54 33h121zM596 1501q39 0 54 -33q8 -16 8 -32.5t-8 -32.5q-15 -33 -54 -33q-111 0 -195 -84 q-68 -61 -84 -158q-57 -20 -75 -78q-7 -21 -7 -42q0 -36 21 -70q23 -33 55 -45v-764h17q39 0 55 -33q8 -16 8 -32t-8 -32q-16 -32 -55 -32h-162q-39 0 -55 32q-8 16 -8.5 32t8.5 32q16 33 55 33h16v922q0 205 131 327q127 123 283 123zM440 1075q31 0 47.5 -19.5t16.5 -46 t-16.5 -46t-47.5 -19.5h-121q-39 0 -54 33q-8 16 -7.5 32.5t7.5 32.5q15 33 54 33h121z" />
<glyph horiz-adv-x="616" />
</font>
</defs>
</svg>
